<?xml version="1.0" encoding="utf-8"?>
<svg version="1.1" xmlns="http://www.w3.org/2000/svg" width="650" height="520" xmlns:bx="https://boxy-svg.com">
  <defs>
    <bx:export>
      <bx:file format="svg" href="#object-0" excluded="true"/>
    </bx:export>
  </defs>
  <path d="M 153.742 60.67 C 270.64 60.67 387.538 60.67 507.978 60.67 C 507.978 155.826 507.978 250.983 507.978 349.023 C 391.08 349.023 274.182 349.023 153.742 349.023 C 153.742 253.866 153.742 158.71 153.742 60.67 Z" style="fill: rgba(254, 254, 254, 0);" id="object-0"/>
  <path d="M0 0 C5.60930461 0.13243256 11.15662999 0.66758603 16.7265625 1.3203125 C18.22316406 1.45953125 18.22316406 1.45953125 19.75 1.6015625 C25.14678543 2.24403696 29.52051346 3.03110312 33.46044922 6.94628906 C37.47720675 12.45095588 40.07619729 18.81858707 42.8515625 25.0078125 C43.54879515 26.52909567 44.24737505 28.04976204 44.94726562 29.56982422 C47.02519905 34.09989212 49.0683322 38.64503493 51.1015625 43.1953125 C51.40586182 43.87515198 51.71016113 44.55499146 52.02368164 45.25543213 C55.43407842 52.87987633 58.79823613 60.52382781 62.1015625 68.1953125 C64.77253891 68.1953125 65.59977912 67.22676261 67.69921875 65.59765625 C68.41432617 65.04609863 69.12943359 64.49454102 69.86621094 63.92626953 C70.62450195 63.33442871 71.38279297 62.74258789 72.1640625 62.1328125 C72.93395508 61.54097168 73.70384766 60.94913086 74.49707031 60.33935547 C79.17864226 56.73274523 83.78664359 53.05666742 88.2421875 49.171875 C90.1015625 48.1953125 90.1015625 48.1953125 92.7109375 48.34375 C95.1015625 49.1953125 95.1015625 49.1953125 97.1015625 52.1953125 C97.51220703 54.2890625 97.51220703 54.2890625 97.734375 56.6953125 C97.81888916 57.57743408 97.90340332 58.45955566 97.99047852 59.3684082 C98.10734009 60.76772583 98.10734009 60.76772583 98.2265625 62.1953125 C98.30640381 63.14559326 98.38624512 64.09587402 98.46850586 65.07495117 C98.62012521 66.94845298 98.76636635 68.82239926 98.90673828 70.69677734 C99.06417948 72.71589163 99.2621437 74.731821 99.47265625 76.74609375 C99.72486084 80.38504563 99.84143446 83.06943239 97.79223633 86.18774414 C93.61082907 90.81314253 89.26464623 94.65888692 84.2265625 98.3203125 C78.1342838 102.85869829 72.18784717 107.51935262 66.3515625 112.3828125 C59.39916337 118.16672097 52.31953934 123.74730911 45.1015625 129.1953125 C48.85702809 132.25584146 52.72029554 135.13445825 56.6640625 137.9453125 C57.26814941 138.38069336 57.87223633 138.81607422 58.49462891 139.26464844 C61.50249213 141.41660284 64.52463043 143.48946563 67.68359375 145.4140625 C68.77027344 146.084375 69.85695313 146.7546875 70.9765625 147.4453125 C71.96398437 148.02796875 72.95140625 148.610625 73.96875 149.2109375 C76.1015625 151.1953125 76.1015625 151.1953125 76.421875 154.4296875 C76.31617188 155.34234375 76.21046875 156.255 76.1015625 157.1953125 C69.85323883 160.4043099 63.5123456 163.2824506 57.0390625 166.0078125 C56.08451172 166.42740234 55.12996094 166.84699219 54.14648438 167.27929688 C48.74856863 169.54053556 44.92629091 170.98918591 39.1015625 169.1953125 C36.234375 167.7265625 36.234375 167.7265625 33.2265625 165.6953125 C32.65486328 165.31366943 32.08316406 164.93202637 31.49414062 164.53881836 C30.15374239 163.63992489 28.8178266 162.73432762 27.48535156 161.82373047 C24.70702587 159.92579598 21.91602989 158.04716891 19.125 156.16796875 C8.83443958 149.22043976 -1.4140911 142.23344286 -11.421875 134.8828125 C-13.86014356 133.05648289 -13.86014356 133.05648289 -16.8984375 132.1953125 C-16.93582031 132.83710449 -16.97320312 133.47889648 -17.01171875 134.14013672 C-17.56634213 141.7539739 -19.05358785 148.92350964 -20.8984375 156.3203125 C-21.17171875 157.4546875 -21.445 158.5890625 -21.7265625 159.7578125 C-23.75543155 168.05230655 -23.75543155 168.05230655 -24.8984375 169.1953125 C-28.66722373 169.6635597 -30.35655492 169.58729956 -33.47558594 167.33105469 C-34.3112207 166.47672852 -35.14685547 165.62240234 -36.0078125 164.7421875 C-36.92691406 163.81277344 -37.84601563 162.88335937 -38.79296875 161.92578125 C-39.2617041 161.4364209 -39.73043945 160.94706055 -40.21337891 160.44287109 C-41.6439138 158.95003322 -43.09469678 157.47960532 -44.55078125 156.01171875 C-53.70183823 146.6541499 -53.70183823 146.6541499 -54.18359375 140.62890625 C-54.03848546 135.3306247 -52.66220431 130.36414632 -51.3359375 125.2578125 C-48.66484966 114.59385734 -46.28088337 103.89009487 -44.0234375 93.1328125 C-43.8666452 92.38709991 -43.70985291 91.64138733 -43.54830933 90.87307739 C-42.66045831 86.64810101 -41.77728566 82.42217233 -40.8984375 78.1953125 C-44.31557969 78.5027479 -47.73204687 78.81714338 -51.1484375 79.1328125 C-52.11652344 79.21982422 -53.08460938 79.30683594 -54.08203125 79.39648438 C-55.01660156 79.48349609 -55.95117188 79.57050781 -56.9140625 79.66015625 C-58.20231934 79.77798462 -58.20231934 79.77798462 -59.51660156 79.89819336 C-61.71742917 80.17273284 -63.75652745 80.6348527 -65.8984375 81.1953125 C-67.43631181 81.33177916 -68.97983098 81.41433712 -70.5234375 81.4453125 C-71.29945313 81.47109375 -72.07546875 81.496875 -72.875 81.5234375 C-73.54273438 81.41515625 -74.21046875 81.306875 -74.8984375 81.1953125 C-77.0151314 78.02027164 -77.17007158 77.04135439 -76.51757812 73.41162109 C-75.11675151 68.39714791 -72.82754921 63.72163509 -70.6484375 59.0078125 C-70.17019531 57.92822266 -69.69195312 56.84863281 -69.19921875 55.73632812 C-68.72355469 54.69798828 -68.24789062 53.65964844 -67.7578125 52.58984375 C-67.32952148 51.64987549 -66.90123047 50.70990723 -66.45996094 49.74145508 C-64.12294481 45.93083262 -61.97161072 43.75153563 -57.5533905 42.56614685 C-54.67563091 42.02183976 -51.80032441 41.59084188 -48.8984375 41.1953125 C-47.93616241 41.05180359 -46.97388733 40.90829468 -45.98245239 40.76043701 C-42.9269386 40.31027982 -39.86871276 39.88640381 -36.80859375 39.46875 C-35.70164658 39.31620758 -34.5946994 39.16366516 -33.45420837 39.00650024 C-31.13589539 38.6877134 -28.81741644 38.37013138 -26.4987793 38.05371094 C-22.94591751 37.56826022 -19.39384171 37.07732614 -15.84179688 36.5859375 C-13.58077418 36.27571343 -11.31970797 35.96580626 -9.05859375 35.65625 C-7.99818375 35.50940765 -6.93777374 35.36256531 -5.8452301 35.21127319 C-4.36735268 35.01073837 -4.36735268 35.01073837 -2.85961914 34.80615234 C-1.99567032 34.68783051 -1.1317215 34.56950867 -0.24159241 34.44760132 C2.1015625 34.1953125 2.1015625 34.1953125 6.1015625 34.1953125 C5.35672732 32.48455273 4.61165102 30.7738976 3.86547852 29.0637207 C3.22826409 27.6030493 2.59204237 26.14194445 1.95678711 24.68041992 C-0.26997927 19.574807 -2.60050755 14.53031416 -5.05078125 9.52734375 C-6.00957672 6.8895516 -6.20272326 4.98069754 -5.8984375 2.1953125 C-3.8984375 0.1953125 -3.8984375 0.1953125 0 0 Z " fill="#DA3334" transform="translate(313.8984375,111.8046875)"/>
  <path d="M0 0 C2.22882846 1.84454769 2.62803876 3.33445372 2.9621582 6.16845703 C2.61044468 11.64784396 -0.04100441 16.70751988 -2.1875 21.6875 C-2.89326172 23.4499707 -2.89326172 23.4499707 -3.61328125 25.24804688 C-8.09106263 35.81488677 -8.09106263 35.81488677 -13.09033203 37.94848633 C-17.7167361 39.16513904 -22.37529229 39.74878938 -27.125 40.25 C-28.19041016 40.37503906 -29.25582031 40.50007813 -30.35351562 40.62890625 C-32.96358207 40.93321893 -35.57440165 41.22315765 -38.1875 41.5 C-38.1875 42.16 -38.1875 42.82 -38.1875 43.5 C-37.65125 43.70882812 -37.115 43.91765625 -36.5625 44.1328125 C-33.26339025 46.03197107 -30.81420014 48.66377733 -28.1875 51.375 C-27.66671875 51.90480469 -27.1459375 52.43460938 -26.609375 52.98046875 C-25.59323471 54.01457112 -24.58198868 55.05351002 -23.57617188 56.09765625 C-22.38293919 57.30263665 -21.11892559 58.43678356 -19.84375 59.5546875 C-17.08346211 62.79672375 -17.65961621 65.81124561 -17.78125 69.90625 C-18.53804519 76.60097666 -20.34887434 83.03197757 -22.1875 89.5 C-21.53789307 89.16677734 -20.88828613 88.83355469 -20.21899414 88.49023438 C-17.23847819 86.97467288 -14.24470947 85.48730538 -11.25 84 C-10.22841797 83.47535156 -9.20683594 82.95070313 -8.15429688 82.41015625 C-2.1969241 79.47905271 3.11633049 76.92708997 9.8125 78.5 C12.80653982 79.78913408 15.39320349 81.45278664 18.0625 83.3125 C19.42185455 84.21487456 20.78122907 85.11721903 22.140625 86.01953125 C23.08325195 86.66656006 23.08325195 86.66656006 24.04492188 87.32666016 C25.97510251 88.64370977 25.97510251 88.64370977 28.796875 90.13671875 C29.46203125 90.58660156 30.1271875 91.03648437 30.8125 91.5 C30.8125 92.49 30.8125 93.48 30.8125 94.5 C31.68720947 94.75740967 32.56191895 95.01481934 33.46313477 95.2800293 C36.85652005 96.51603384 39.41674947 98.00230776 42.40234375 100.01953125 C43.43423828 100.71240234 44.46613281 101.40527344 45.52929688 102.11914062 C46.59212891 102.84294922 47.65496094 103.56675781 48.75 104.3125 C49.80896484 105.02470703 50.86792969 105.73691406 51.95898438 106.47070312 C54.00534918 107.85069087 56.04700075 109.23770058 58.08325195 110.63256836 C59.74928599 111.77251776 61.42311958 112.90130508 63.11010742 114.01000977 C64.73087993 115.09784126 66.28195978 116.28850196 67.8125 117.5 C68.25 120.8125 68.25 120.8125 67.8125 123.5 C61.56417633 126.7089974 55.2232831 129.5871381 48.75 132.3125 C47.79544922 132.73208984 46.84089844 133.15167969 45.85742188 133.58398438 C40.45950613 135.84522306 36.63722841 137.29387341 30.8125 135.5 C27.9453125 134.03125 27.9453125 134.03125 24.9375 132 C24.36580078 131.61835693 23.79410156 131.23671387 23.20507812 130.84350586 C21.86467989 129.94461239 20.5287641 129.03901512 19.19628906 128.12841797 C16.41796337 126.23048348 13.62696739 124.35185641 10.8359375 122.47265625 C0.54537708 115.52512726 -9.7031536 108.53813036 -19.7109375 101.1875 C-22.14920606 99.36117039 -22.14920606 99.36117039 -25.1875 98.5 C-25.22488281 99.14179199 -25.26226562 99.78358398 -25.30078125 100.44482422 C-25.85540463 108.0586614 -27.34265035 115.22819714 -29.1875 122.625 C-29.46078125 123.759375 -29.7340625 124.89375 -30.015625 126.0625 C-32.04449405 134.35699405 -32.04449405 134.35699405 -33.1875 135.5 C-36.95628623 135.9682472 -38.64561742 135.89198706 -41.76464844 133.63574219 C-42.6002832 132.78141602 -43.43591797 131.92708984 -44.296875 131.046875 C-45.21597656 130.11746094 -46.13507813 129.18804687 -47.08203125 128.23046875 C-47.5507666 127.7411084 -48.01950195 127.25174805 -48.50244141 126.74755859 C-49.9329763 125.25472072 -51.38375928 123.78429282 -52.83984375 122.31640625 C-61.99090073 112.9588374 -61.99090073 112.9588374 -62.47265625 106.93359375 C-62.32754796 101.6353122 -60.95126681 96.66883382 -59.625 91.5625 C-56.95391216 80.89854484 -54.56994587 70.19478237 -52.3125 59.4375 C-52.07731155 58.31893112 -52.07731155 58.31893112 -51.83737183 57.17776489 C-50.94952081 52.95278851 -50.06634816 48.72685983 -49.1875 44.5 C-52.60464219 44.8074354 -56.02110937 45.12183088 -59.4375 45.4375 C-60.88962891 45.56801758 -60.88962891 45.56801758 -62.37109375 45.70117188 C-63.77294922 45.83168945 -63.77294922 45.83168945 -65.203125 45.96484375 C-66.49138184 46.08267212 -66.49138184 46.08267212 -67.80566406 46.20288086 C-70.00649167 46.47742034 -72.04558995 46.9395402 -74.1875 47.5 C-75.72537431 47.63646666 -77.26889348 47.71902462 -78.8125 47.75 C-79.97652344 47.78867188 -79.97652344 47.78867188 -81.1640625 47.828125 C-81.83179688 47.71984375 -82.49953125 47.6115625 -83.1875 47.5 C-85.3041939 44.32495914 -85.45913408 43.34604189 -84.80664062 39.71630859 C-83.40581401 34.70183541 -81.11661171 30.02632259 -78.9375 25.3125 C-78.45925781 24.23291016 -77.98101562 23.15332031 -77.48828125 22.04101562 C-77.01261719 21.00267578 -76.53695312 19.96433594 -76.046875 18.89453125 C-75.61858398 17.95456299 -75.19029297 17.01459473 -74.74902344 16.04614258 C-72.41181079 12.2351997 -70.26010888 10.05716409 -65.842453 8.86959839 C-62.96462879 8.32425893 -60.08992967 7.89346385 -57.1875 7.5 C-56.22522491 7.35875702 -55.26294983 7.21751404 -54.27151489 7.07199097 C-51.21595866 6.63114932 -48.15770071 6.21706212 -45.09765625 5.80859375 C-43.99070908 5.658423 -42.8837619 5.50825226 -41.74327087 5.35353088 C-38.24582742 4.87916648 -34.74796965 4.40796738 -31.25 3.9375 C-26.61553322 3.31376944 -21.98148752 2.68702595 -17.34765625 2.05859375 C-15.75704124 1.84607216 -15.75704124 1.84607216 -14.1342926 1.6292572 C-13.14904099 1.49564285 -12.16378937 1.3620285 -11.14868164 1.22436523 C-9.85275841 1.05021339 -9.85275841 1.05021339 -8.53065491 0.87254333 C-6.19960693 0.54254501 -6.19960693 0.54254501 -4.0141449 -0.07652283 C-2.1875 -0.5 -2.1875 -0.5 0 0 Z " fill="#403C39" transform="translate(322.1875,145.5)"/>
  <path d="M0 0 C2.20655878 2.75642851 3.73060224 5.36954435 5.0859375 8.625 C5.45976562 9.49640625 5.83359375 10.3678125 6.21875 11.265625 C6.98840339 13.08575127 7.75145467 14.90868368 8.5078125 16.734375 C11.00574939 22.51727 13.19064456 26.09532228 19 29 C20.76395034 29.1977939 22.53375894 29.34461368 24.3046875 29.46484375 C25.89216797 29.58182617 25.89216797 29.58182617 27.51171875 29.70117188 C29.7458615 29.85815868 31.98023987 30.011829 34.21484375 30.16210938 C35.27574219 30.24138672 36.33664062 30.32066406 37.4296875 30.40234375 C38.40147949 30.46929443 39.37327148 30.53624512 40.37451172 30.60522461 C42.97941167 30.99690428 44.73870725 31.68219372 47 33 C46.54149658 33.36762451 46.08299316 33.73524902 45.6105957 34.11401367 C43.5087535 35.80211785 41.41061448 37.49476534 39.3125 39.1875 C38.59126953 39.76564453 37.87003906 40.34378906 37.12695312 40.93945312 C30.17486573 46.18921867 30.17486573 46.18921867 25 53 C25.19871948 62.69139602 26.73049416 72.39859179 28 82 C24.99260372 81.39537986 22.93362914 80.46716365 20.42578125 78.71484375 C19.75740234 78.26689453 19.08902344 77.81894531 18.40039062 77.35742188 C17.01995176 76.41862014 15.64731954 75.46822447 14.28320312 74.50585938 C9.17698183 71.12609686 5.1009967 69.81922386 -1 71 C-4.43070127 72.1971736 -7.59565194 73.75637163 -10.8125 75.4375 C-12.46334016 76.27251055 -14.11563366 77.1046555 -15.76953125 77.93359375 C-16.48729736 78.30540771 -17.20506348 78.67722168 -17.94458008 79.06030273 C-19.95388435 79.97891684 -21.84413652 80.5393506 -24 81 C-23.51271379 77.1829247 -22.89637394 73.53918736 -21.9375 69.8125 C-20.71952608 64.35035542 -19.89756215 58.51989859 -21 53 C-23.14981064 50.41135765 -23.14981064 50.41135765 -26 48 C-27.02177394 46.98137814 -28.03587069 45.95500906 -29.04296875 44.921875 C-30.09112308 43.86456077 -31.13930038 42.80726933 -32.1875 41.75 C-32.72052734 41.20859375 -33.25355469 40.6671875 -33.80273438 40.109375 C-36.62507537 37.19242899 -36.62507537 37.19242899 -40 35 C-40 34.34 -40 33.68 -40 33 C-38.87722656 32.80664062 -37.75445312 32.61328125 -36.59765625 32.4140625 C-32.75467007 31.74860849 -28.91523052 31.0647282 -25.07714844 30.37158203 C-23.38915183 30.06961555 -21.69879452 29.78086749 -20.0078125 29.49609375 C-15.34173336 28.62414967 -13.04713781 27.60816875 -10 24 C-8.56866761 21.32832287 -8.56866761 21.32832287 -7.421875 18.359375 C-6.98359375 17.28945312 -6.5453125 16.21953125 -6.09375 15.1171875 C-5.42859375 13.45042969 -5.42859375 13.45042969 -4.75 11.75 C-4.29109375 10.62335938 -3.8321875 9.49671875 -3.359375 8.3359375 C-2.23051287 5.56081809 -1.11112529 2.78225773 0 0 Z " fill="#FBFAFA" transform="translate(324,154)"/>
  <path d="M0 0 C2.22882846 1.84454769 2.62803876 3.33445372 2.9621582 6.16845703 C2.61044468 11.64784396 -0.04100441 16.70751988 -2.1875 21.6875 C-2.89326172 23.4499707 -2.89326172 23.4499707 -3.61328125 25.24804688 C-7.64876307 34.77113133 -7.64876307 34.77113133 -11.45703125 37.1875 C-15.92590297 38.75979413 -20.18800777 39.68629003 -24.875 40.3125 C-25.75188477 40.43794189 -26.62876953 40.56338379 -27.53222656 40.69262695 C-34.20439244 41.56443205 -40.52720272 41.62358674 -47.1875 40.5 C-47.5175 41.49 -47.8475 42.48 -48.1875 43.5 C-52.33154234 44.17812422 -56.4779726 44.84039758 -60.625 45.5 C-61.78966797 45.69078125 -62.95433594 45.8815625 -64.15429688 46.078125 C-70.55218 47.08736854 -76.71129581 48.03577698 -83.1875 47.5 C-85.3041939 44.32495914 -85.45913408 43.34604189 -84.80664062 39.71630859 C-83.40581401 34.70183541 -81.11661171 30.02632259 -78.9375 25.3125 C-78.45925781 24.23291016 -77.98101562 23.15332031 -77.48828125 22.04101562 C-77.01261719 21.00267578 -76.53695312 19.96433594 -76.046875 18.89453125 C-75.61858398 17.95456299 -75.19029297 17.01459473 -74.74902344 16.04614258 C-72.41181079 12.2351997 -70.26010888 10.05716409 -65.842453 8.86959839 C-62.96462879 8.32425893 -60.08992967 7.89346385 -57.1875 7.5 C-56.22522491 7.35875702 -55.26294983 7.21751404 -54.27151489 7.07199097 C-51.21595866 6.63114932 -48.15770071 6.21706212 -45.09765625 5.80859375 C-43.99070908 5.658423 -42.8837619 5.50825226 -41.74327087 5.35353088 C-38.24582742 4.87916648 -34.74796965 4.40796738 -31.25 3.9375 C-26.61553322 3.31376944 -21.98148752 2.68702595 -17.34765625 2.05859375 C-15.75704124 1.84607216 -15.75704124 1.84607216 -14.1342926 1.6292572 C-13.14904099 1.49564285 -12.16378937 1.3620285 -11.14868164 1.22436523 C-9.85275841 1.05021339 -9.85275841 1.05021339 -8.53065491 0.87254333 C-6.19960693 0.54254501 -6.19960693 0.54254501 -4.0141449 -0.07652283 C-2.1875 -0.5 -2.1875 -0.5 0 0 Z " fill="#444444" transform="translate(322.1875,145.5)"/>
  <path d="M0 0 C6.75 -0.125 6.75 -0.125 9 1 C9 1.66 9 2.32 9 3 C9.53625 3.20882812 10.0725 3.41765625 10.625 3.6328125 C13.92410975 5.53197107 16.37329986 8.16377733 19 10.875 C19.78117187 11.66970703 19.78117187 11.66970703 20.578125 12.48046875 C21.59438905 13.51469706 22.60556059 14.55395893 23.61108398 15.59863281 C24.80291474 16.80114794 26.06941163 17.92884005 27.34765625 19.0390625 C30.12847163 22.33922637 29.46653729 25.55106125 29.33984375 29.69140625 C28.89252861 34.0463019 27.88878525 38.11455018 26.65625 42.30859375 C26.00422915 44.98265546 25.88066724 47.26031879 26 50 C25.01 50.33 24.02 50.66 23 51 C22.67 52.98 22.34 54.96 22 57 C22.99 57.495 22.99 57.495 24 58 C23.34 58 22.68 58 22 58 C21.96261719 58.64179199 21.92523438 59.28358398 21.88671875 59.94482422 C21.33209537 67.5586614 19.84484965 74.72819714 18 82.125 C17.72671875 83.259375 17.4534375 84.39375 17.171875 85.5625 C15.14300595 93.85699405 15.14300595 93.85699405 14 95 C10.23121377 95.4682472 8.54188258 95.39198706 5.42285156 93.13574219 C4.5872168 92.28141602 3.75158203 91.42708984 2.890625 90.546875 C1.51197266 89.15275391 1.51197266 89.15275391 0.10546875 87.73046875 C-0.3632666 87.2411084 -0.83200195 86.75174805 -1.31494141 86.24755859 C-2.7454763 84.75472072 -4.19625928 83.28429282 -5.65234375 81.81640625 C-14.80340073 72.4588374 -14.80340073 72.4588374 -15.28515625 66.43359375 C-15.14004796 61.1353122 -13.76376681 56.16883382 -12.4375 51.0625 C-9.76641216 40.39854484 -7.38244587 29.69478237 -5.125 18.9375 C-4.9682077 18.19178741 -4.81141541 17.44607483 -4.64987183 16.67776489 C-3.76202081 12.45278851 -2.87884816 8.22685983 -2 4 C-4.31 4 -6.62 4 -9 4 C-9 3.67 -9 3.34 -9 3 C-5.92382812 2.70703125 -5.92382812 2.70703125 -2.84765625 2.4140625 C-1.93306641 2.20910156 -1.93306641 2.20910156 -1 2 C-0.67 1.34 -0.34 0.68 0 0 Z " fill="#3E3B33" transform="translate(275,186)"/>
  <path d="M0 0 C3.28916719 0.1952943 6.56850015 0.42400863 9.8515625 0.70703125 C13.27834641 0.99164514 16.64431672 1.00591511 20.07958984 0.8815918 C23.58051092 1.15750995 26.81912642 1.47953682 30 3 C31.76891831 5.463036 32.83003424 7.31853789 33.98046875 10.046875 C34.30648575 10.75681107 34.63250275 11.46674713 34.96839905 12.19819641 C35.6547945 13.69899455 36.3293941 15.20523712 36.99279785 16.71633911 C37.97142328 18.93520711 38.98736613 21.13198462 40.02050781 23.32592773 C41.69285721 26.88259628 43.33273255 30.45276147 44.95727539 34.03149414 C45.95572155 36.22757832 46.96307193 38.41944559 47.97070312 40.61132812 C48.61512002 42.02579728 49.25902056 43.44050182 49.90234375 44.85546875 C50.20019272 45.50130417 50.49804169 46.14713959 50.80491638 46.81254578 C52.32599059 50.18636244 53.45301671 53.33412237 54 57 C43.59201341 56.43174786 33.32724245 55.39777395 23 54 C22.76667969 53.32839844 22.53335937 52.65679687 22.29296875 51.96484375 C18.36724611 41.21418988 13.31883887 31.03310473 8.33056641 20.74511719 C6.47662635 16.92021773 4.63383212 13.09053022 2.8125 9.25 C1.98685547 7.52523437 1.98685547 7.52523437 1.14453125 5.765625 C0 3 0 3 0 0 Z " fill="#3E3634" transform="translate(315,118)"/>
  <path d="M0 0 C0.50469616 4.22862004 1.00293584 8.45797659 1.5 12.6875 C1.64308594 13.88568359 1.78617187 15.08386719 1.93359375 16.31835938 C2.13662109 18.05375977 2.13662109 18.05375977 2.34375 19.82421875 C2.46943359 20.88729248 2.59511719 21.95036621 2.72460938 23.0456543 C3.41665079 30.46976169 3.41665079 30.46976169 1.75341797 32.58642578 C1.17221191 33.0348584 0.59100586 33.48329102 -0.0078125 33.9453125 C-0.65766113 34.45916504 -1.30750977 34.97301758 -1.97705078 35.50244141 C-3.04028564 36.30560791 -3.04028564 36.30560791 -4.125 37.125 C-4.85058105 37.6926709 -5.57616211 38.2603418 -6.32373047 38.84521484 C-7.82015951 40.01396346 -9.32167854 41.17622319 -10.828125 42.33203125 C-13.379408 44.29137988 -15.90240705 46.28459852 -18.42431641 48.28149414 C-20.11887378 49.62016041 -21.82022281 50.949716 -23.5234375 52.27734375 C-26.00084486 54.21091269 -28.46119081 56.16430971 -30.9140625 58.12890625 C-31.55585449 58.64050293 -32.19764648 59.15209961 -32.85888672 59.67919922 C-34.09530532 60.66533324 -35.32883716 61.65510044 -36.55908203 62.64892578 C-40.77526672 66 -40.77526672 66 -43 66 C-43.67310593 61.9385397 -44.33735482 57.87567904 -45 53.8125 C-45.19078125 52.66201172 -45.3815625 51.51152344 -45.578125 50.32617188 C-45.75859375 49.21435547 -45.9390625 48.10253906 -46.125 46.95703125 C-46.29257812 45.93585205 -46.46015625 44.91467285 -46.6328125 43.86254883 C-47.29643145 38.6890567 -47.29643145 38.6890567 -47 36 C-45.66162109 34.32177734 -45.66162109 34.32177734 -43.7734375 32.8359375 C-43.07839111 32.27688721 -42.38334473 31.71783691 -41.66723633 31.1418457 C-40.91079834 30.55878662 -40.15436035 29.97572754 -39.375 29.375 C-38.60244873 28.76035889 -37.82989746 28.14571777 -37.03393555 27.51245117 C-34.70016233 25.66065025 -32.35135524 23.82939383 -30 22 C-28.74758266 21.01052457 -27.49618606 20.01975497 -26.24609375 19.02734375 C-23.98600675 17.2367082 -21.7178458 15.45729495 -19.44140625 13.6875 C-16.9753716 11.7689179 -14.52846642 9.82830368 -12.08984375 7.875 C-11.44748779 7.36283936 -10.80513184 6.85067871 -10.14331055 6.32299805 C-8.90613923 5.33597304 -7.67179304 4.34539366 -6.44067383 3.35083008 C-2.22463767 0 -2.22463767 0 0 0 Z " fill="#4B463E" transform="translate(405,167)"/>
  <path d="M0 0 C2.11184644 1.2155701 4.10660352 2.522737 6.10571289 3.91552734 C7.46506744 4.81790191 8.82444196 5.72024637 10.18383789 6.62255859 C11.12646484 7.2695874 11.12646484 7.2695874 12.08813477 7.9296875 C14.0183154 9.24673711 14.0183154 9.24673711 16.84008789 10.73974609 C17.50524414 11.18962891 18.17040039 11.63951172 18.85571289 12.10302734 C18.85571289 13.09302734 18.85571289 14.08302734 18.85571289 15.10302734 C19.73042236 15.36043701 20.60513184 15.61784668 21.50634766 15.88305664 C24.89973294 17.11906118 27.45996236 18.60533511 30.44555664 20.62255859 C31.47745117 21.31542969 32.5093457 22.00830078 33.57250977 22.72216797 C35.16675781 23.80788086 35.16675781 23.80788086 36.79321289 24.91552734 C37.85217773 25.62773437 38.91114258 26.33994141 40.00219727 27.07373047 C42.04856207 28.45371821 44.09021364 29.84072793 46.12646484 31.2355957 C47.79249888 32.3755451 49.46633247 33.50433243 51.15332031 34.61303711 C52.77409282 35.7008686 54.32517267 36.89152931 55.85571289 38.10302734 C56.29321289 41.41552734 56.29321289 41.41552734 55.85571289 44.10302734 C49.60738922 47.31202474 43.26649599 50.19016544 36.79321289 52.91552734 C35.83866211 53.33511719 34.88411133 53.75470703 33.90063477 54.18701172 C28.50271902 56.44825041 24.6804413 57.89690076 18.85571289 56.10302734 C15.98852539 54.63427734 15.98852539 54.63427734 12.98071289 52.60302734 C12.40901367 52.22138428 11.83731445 51.83974121 11.24829102 51.4465332 C9.90789278 50.54763974 8.57197699 49.64204246 7.23950195 48.73144531 C4.46117626 46.83351082 1.67018028 44.95488376 -1.12084961 43.07568359 C-11.39449329 36.14035259 -21.62388473 29.1531447 -31.66772461 21.88818359 C-33.46791026 20.59057343 -35.29787386 19.33396951 -37.14428711 18.10302734 C-37.33178711 14.97802734 -37.33178711 14.97802734 -37.14428711 12.10302734 C-36.10530273 11.58353516 -35.06631836 11.06404297 -33.99584961 10.52880859 C-33.32497314 10.19300781 -32.65409668 9.85720703 -31.96289062 9.51123047 C-30.49319235 8.77711741 -29.02231125 8.04536789 -27.55029297 7.31591797 C-24.39077897 5.74713271 -21.25893845 4.16645469 -18.17163086 2.45849609 C-17.35823242 2.01119141 -16.54483398 1.56388672 -15.70678711 1.10302734 C-15.02745117 0.71115234 -14.34811523 0.31927734 -13.64819336 -0.08447266 C-9.07072853 -1.56982786 -4.50489445 -1.88443382 0 0 Z M-13.21899414 13.19238281 C-14.91770908 13.99585818 -16.62236324 14.78675091 -18.32788086 15.57568359 C-19.21604492 15.99720703 -20.10420898 16.41873047 -21.01928711 16.85302734 C-21.80045898 17.21912109 -22.58163086 17.58521484 -23.38647461 17.96240234 C-25.47596988 19.05859553 -25.47596988 19.05859553 -26.14428711 22.10302734 C-25.31670898 22.65087891 -24.48913086 23.19873047 -23.63647461 23.76318359 C-14.7089827 29.6876295 -5.84270418 35.69863021 3.00073242 41.74780273 C4.77037349 42.9575873 6.54580688 44.15894981 8.32739258 45.35107422 C10.85571289 47.10302734 10.85571289 47.10302734 13.2043457 48.99560547 C17.18150654 52.22239887 17.18150654 52.22239887 22.04443359 52.95239258 C24.43445435 52.1829572 26.59752087 51.19954201 28.85571289 50.10302734 C30.60314986 49.41218017 32.35461756 48.73145657 34.10961914 48.06005859 C35.88023032 47.34789395 37.64975794 46.63302961 39.41821289 45.91552734 C40.33151367 45.5475 41.24481445 45.17947266 42.18579102 44.80029297 C44.41007553 43.90359188 46.63334734 43.00447136 48.85571289 42.10302734 C47.64788969 38.47955773 46.62940558 37.994986 43.50805664 35.91552734 C42.60015381 35.30443115 41.69225098 34.69333496 40.75683594 34.0637207 C39.77884033 33.41669189 38.80084473 32.76966309 37.79321289 32.10302734 C35.77737651 30.75047775 33.76175303 29.39761079 31.74633789 28.04443359 C30.74666992 27.37686035 29.74700195 26.70928711 28.71704102 26.02148438 C24.8013845 23.39612355 20.92060225 20.72192255 17.04321289 18.04052734 C2.63179931 7.59100784 2.63179931 7.59100784 -13.21899414 13.19238281 Z " fill="#272522" transform="translate(334.144287109375,224.89697265625)"/>
  <path d="M0 0 C2.22882846 1.84454769 2.62803876 3.33445372 2.9621582 6.16845703 C2.61044468 11.64784396 -0.04100441 16.70751988 -2.1875 21.6875 C-2.89326172 23.4499707 -2.89326172 23.4499707 -3.61328125 25.24804688 C-7.64876307 34.77113133 -7.64876307 34.77113133 -11.45703125 37.1875 C-15.92590297 38.75979413 -20.18800777 39.68629003 -24.875 40.3125 C-25.75188477 40.43794189 -26.62876953 40.56338379 -27.53222656 40.69262695 C-34.20439244 41.56443205 -40.52720272 41.62358674 -47.1875 40.5 C-47.5175 41.49 -47.8475 42.48 -48.1875 43.5 C-52.33154234 44.17812422 -56.4779726 44.84039758 -60.625 45.5 C-61.78966797 45.69078125 -62.95433594 45.8815625 -64.15429688 46.078125 C-70.55218 47.08736854 -76.71129581 48.03577698 -83.1875 47.5 C-85.3041939 44.32495914 -85.45913408 43.34604189 -84.80664062 39.71630859 C-83.40581401 34.70183541 -81.11661171 30.02632259 -78.9375 25.3125 C-78.45925781 24.23291016 -77.98101562 23.15332031 -77.48828125 22.04101562 C-77.01261719 21.00267578 -76.53695312 19.96433594 -76.046875 18.89453125 C-75.61858398 17.95456299 -75.19029297 17.01459473 -74.74902344 16.04614258 C-72.41181079 12.2351997 -70.26010888 10.05716409 -65.842453 8.86959839 C-62.96462879 8.32425893 -60.08992967 7.89346385 -57.1875 7.5 C-56.22522491 7.35875702 -55.26294983 7.21751404 -54.27151489 7.07199097 C-51.21595866 6.63114932 -48.15770071 6.21706212 -45.09765625 5.80859375 C-43.99070908 5.658423 -42.8837619 5.50825226 -41.74327087 5.35353088 C-38.24582742 4.87916648 -34.74796965 4.40796738 -31.25 3.9375 C-26.61553322 3.31376944 -21.98148752 2.68702595 -17.34765625 2.05859375 C-15.75704124 1.84607216 -15.75704124 1.84607216 -14.1342926 1.6292572 C-13.14904099 1.49564285 -12.16378937 1.3620285 -11.14868164 1.22436523 C-9.85275841 1.05021339 -9.85275841 1.05021339 -8.53065491 0.87254333 C-6.19960693 0.54254501 -6.19960693 0.54254501 -4.0141449 -0.07652283 C-2.1875 -0.5 -2.1875 -0.5 0 0 Z M-25.3515625 5.9609375 C-26.42119232 6.11156647 -27.49082214 6.26219543 -28.59286499 6.41738892 C-30.84737348 6.7363818 -33.10157007 7.05758591 -35.35546875 7.38085938 C-38.80618582 7.87409747 -42.25843746 8.35535893 -45.7109375 8.8359375 C-47.90374951 9.14770916 -50.09646152 9.46018515 -52.2890625 9.7734375 C-53.32141022 9.91623138 -54.35375793 10.05902527 -55.41738892 10.20614624 C-56.85941177 10.41613754 -56.85941177 10.41613754 -58.33056641 10.63037109 C-59.17406647 10.75028412 -60.01756653 10.87019714 -60.8866272 10.9937439 C-64.07248125 11.69472052 -66.51232561 12.4482635 -68.3125 15.25244141 C-68.60125 15.94515137 -68.89 16.63786133 -69.1875 17.3515625 C-69.5175 18.12113281 -69.8475 18.89070313 -70.1875 19.68359375 C-70.5175 20.48925781 -70.8475 21.29492188 -71.1875 22.125 C-71.85230224 23.70130845 -72.51895937 25.27683593 -73.1875 26.8515625 C-73.51234375 27.6240332 -73.8371875 28.39650391 -74.171875 29.19238281 C-75.18484521 31.49396802 -76.28929962 33.72417038 -77.4375 35.9609375 C-79.33525054 39.14078305 -79.33525054 39.14078305 -79.1875 41.5 C-78.05376953 41.37302734 -76.92003906 41.24605469 -75.75195312 41.11523438 C-74.15763658 40.940633 -72.5632275 40.76687535 -70.96875 40.59375 C-69.68816711 40.45374573 -69.68816711 40.45374573 -68.38171387 40.31091309 C-63.09177788 39.75089297 -57.81784606 39.34102248 -52.50657654 39.054245 C-33.55923838 38.68095513 -33.55923838 38.68095513 -17.31298828 30.72119141 C-12.70248084 23.55978411 -10.72667451 15.79277383 -9.1875 7.5 C-8.8575 6.51 -8.5275 5.52 -8.1875 4.5 C-14.00566911 4.26924759 -19.60946947 5.14095984 -25.3515625 5.9609375 Z " fill="#0B7DBB" transform="translate(322.1875,145.5)"/>
  <path d="M0 0 C2.390625 0.8515625 2.390625 0.8515625 4.390625 3.8515625 C4.80126953 5.9453125 4.80126953 5.9453125 5.0234375 8.3515625 C5.10795166 9.23368408 5.19246582 10.11580566 5.27954102 11.0246582 C5.39640259 12.42397583 5.39640259 12.42397583 5.515625 13.8515625 C5.59546631 14.80184326 5.67530762 15.75212402 5.75756836 16.73120117 C5.90918771 18.60470298 6.05542885 20.47864926 6.19580078 22.35302734 C6.35324198 24.37214163 6.5512062 26.388071 6.76171875 28.40234375 C7.01392334 32.04129563 7.13049696 34.72568239 5.08129883 37.84399414 C0.89989157 42.46939253 -3.44629127 46.31513692 -8.484375 49.9765625 C-14.57679586 54.51505419 -20.52107188 59.17790346 -26.359375 64.0390625 C-27.76652211 65.20101144 -29.17406704 66.36247879 -30.58203125 67.5234375 C-32.56685349 69.16061943 -34.54863921 70.80056369 -36.51904297 72.45507812 C-38.26521557 73.91664456 -40.0280524 75.35505644 -41.796875 76.7890625 C-43.27220703 78.00916016 -43.27220703 78.00916016 -44.77734375 79.25390625 C-47.609375 80.8515625 -47.609375 80.8515625 -50.97265625 80.60546875 C-51.84277344 80.35667969 -52.71289062 80.10789062 -53.609375 79.8515625 C-53.609375 78.8615625 -53.609375 77.8715625 -53.609375 76.8515625 C-54.599375 76.5215625 -55.589375 76.1915625 -56.609375 75.8515625 C-55.949375 75.8515625 -55.289375 75.8515625 -54.609375 75.8515625 C-54.898125 74.6346875 -55.186875 73.4178125 -55.484375 72.1640625 C-60.37388555 50.05648982 -60.37388555 50.05648982 -57.078125 44.0703125 C-54.28810698 40.06360886 -50.55585274 37.265608 -46.734375 34.2890625 C-45.34092704 33.18386955 -43.9476946 32.07840482 -42.5546875 30.97265625 C-41.88727539 30.44526855 -41.21986328 29.91788086 -40.53222656 29.37451172 C-35.04046403 25.13696461 -35.04046403 25.13696461 -30.609375 19.8515625 C-29.949375 19.8515625 -29.289375 19.8515625 -28.609375 19.8515625 C-26.87969824 18.74400395 -26.87969824 18.74400395 -25.01171875 17.25390625 C-24.29661133 16.70234863 -23.58150391 16.15079102 -22.84472656 15.58251953 C-22.08643555 14.99067871 -21.32814453 14.39883789 -20.546875 13.7890625 C-19.77698242 13.19722168 -19.00708984 12.60538086 -18.21386719 11.99560547 C-13.53229524 8.38899523 -8.92429391 4.71291742 -4.46875 0.828125 C-2.609375 -0.1484375 -2.609375 -0.1484375 0 0 Z M-6.8125 9.30859375 C-7.45582275 9.838479 -8.09914551 10.36836426 -8.76196289 10.91430664 C-9.45410889 11.49172607 -10.14625488 12.06914551 -10.859375 12.6640625 C-12.32083735 13.8681315 -13.78309061 15.0712411 -15.24609375 16.2734375 C-15.98134277 16.87865234 -16.7165918 17.48386719 -17.47412109 18.10742188 C-19.95280404 20.13208583 -22.45757606 22.11983974 -24.97924805 24.09057617 C-26.10850115 24.97355339 -27.23368172 25.8617637 -28.35473633 26.75512695 C-31.45437935 29.2173021 -34.59948181 31.55846591 -37.8515625 33.81640625 C-44.98917255 38.49150979 -44.98917255 38.49150979 -49.43359375 45.38671875 C-49.19766122 48.37982355 -48.44299607 50.96304833 -47.609375 53.8515625 C-47.1709635 56.36022137 -46.8005575 58.8743151 -46.43310547 61.39428711 C-45.87417322 65.2216658 -45.23819945 69.03511224 -44.609375 72.8515625 C-40.17025781 71.40986756 -37.10639499 68.96368394 -33.671875 65.9140625 C-29.09016528 61.94241561 -24.44844512 58.08661979 -19.671875 54.3515625 C-19.10210937 53.89563721 -18.53234375 53.43971191 -17.9453125 52.9699707 C-14.91003615 50.55867843 -11.84686088 48.32828094 -8.578125 46.2421875 C-1.43131871 41.72555265 -1.43131871 41.72555265 2.11328125 34.38671875 C1.91885079 31.13597796 1.5043533 28.08403579 0.80908203 24.90429688 C0.21447565 21.98746463 -0.09544798 19.05493594 -0.42578125 16.09838867 C-0.77378924 13.00947252 -1.19246282 9.93185537 -1.609375 6.8515625 C-4.21160752 6.8515625 -4.8288123 7.65897429 -6.8125 9.30859375 Z " fill="#DFC806" transform="translate(406.609375,160.1484375)"/>
  <path d="M0 0 C6.75 -0.125 6.75 -0.125 9 1 C9 1.66 9 2.32 9 3 C9.53625 3.20882812 10.0725 3.41765625 10.625 3.6328125 C13.92410975 5.53197107 16.37329986 8.16377733 19 10.875 C19.78117187 11.66970703 19.78117187 11.66970703 20.578125 12.48046875 C21.59438905 13.51469706 22.60556059 14.55395893 23.61108398 15.59863281 C24.80291474 16.80114794 26.06941163 17.92884005 27.34765625 19.0390625 C30.12847163 22.33922637 29.46653729 25.55106125 29.33984375 29.69140625 C28.89252861 34.0463019 27.88878525 38.11455018 26.65625 42.30859375 C26.00422915 44.98265546 25.88066724 47.26031879 26 50 C25.01 50.33 24.02 50.66 23 51 C22.67 52.98 22.34 54.96 22 57 C22.99 57.495 22.99 57.495 24 58 C23.34 58 22.68 58 22 58 C21.96261719 58.64179199 21.92523438 59.28358398 21.88671875 59.94482422 C21.33209537 67.5586614 19.84484965 74.72819714 18 82.125 C17.72671875 83.259375 17.4534375 84.39375 17.171875 85.5625 C15.14300595 93.85699405 15.14300595 93.85699405 14 95 C10.23121377 95.4682472 8.54188258 95.39198706 5.42285156 93.13574219 C4.5872168 92.28141602 3.75158203 91.42708984 2.890625 90.546875 C1.51197266 89.15275391 1.51197266 89.15275391 0.10546875 87.73046875 C-0.3632666 87.2411084 -0.83200195 86.75174805 -1.31494141 86.24755859 C-2.7454763 84.75472072 -4.19625928 83.28429282 -5.65234375 81.81640625 C-14.80340073 72.4588374 -14.80340073 72.4588374 -15.28515625 66.43359375 C-15.14004796 61.1353122 -13.76376681 56.16883382 -12.4375 51.0625 C-9.76641216 40.39854484 -7.38244587 29.69478237 -5.125 18.9375 C-4.9682077 18.19178741 -4.81141541 17.44607483 -4.64987183 16.67776489 C-3.76202081 12.45278851 -2.87884816 8.22685983 -2 4 C-4.31 4 -6.62 4 -9 4 C-9 3.67 -9 3.34 -9 3 C-5.92382812 2.70703125 -5.92382812 2.70703125 -2.84765625 2.4140625 C-1.93306641 2.20910156 -1.93306641 2.20910156 -1 2 C-0.67 1.34 -0.34 0.68 0 0 Z M0 10 C-1.71493001 17.61586082 -3.42324851 25.2331827 -5.12695312 32.8515625 C-5.70745728 35.44370184 -6.28948067 38.03550143 -6.87304688 40.62695312 C-7.71102031 44.34937933 -8.54354348 48.07298848 -9.375 51.796875 C-9.63748535 52.95741394 -9.8999707 54.11795288 -10.17041016 55.31365967 C-10.41065918 56.39447815 -10.6509082 57.47529663 -10.8984375 58.58886719 C-11.11161621 59.53928894 -11.32479492 60.48971069 -11.54443359 61.46893311 C-12.11809556 64.22750024 -12.11809556 64.22750024 -12 68 C-10.66240683 69.5633567 -10.66240683 69.5633567 -8.75 70.9375 C-4.03987718 74.77974688 -0.10570827 79.15822404 3.87402344 83.73217773 C5.19091649 85.20904091 6.5904315 86.611314 8 88 C8.99 88 9.98 88 11 88 C13.52799991 77.02969471 16.03812032 66.05544009 18.52825928 55.07647705 C18.94624581 53.23661162 19.36673711 51.39731562 19.78759766 49.55810547 C20.38982649 46.91594179 20.97944467 44.27144766 21.5625 41.625 C21.73040039 40.89756592 21.89830078 40.17013184 22.07128906 39.4206543 C22.87999125 35.66968181 23.35219207 32.64701802 22 29 C20.39119163 27.49237943 20.39119163 27.49237943 18.4375 26.3125 C15.93493327 24.36662669 15.0994084 23.5619102 14.5390625 20.39453125 C14.56020845 17.89578456 14.69137784 15.47877479 15 13 C13.68 12.67 12.36 12.34 11 12 C11 13.65 11 15.3 11 17 C7.44577736 15.02543187 4.86095552 12.86095552 2 10 C1.34 10 0.68 10 0 10 Z " fill="#A7C311" transform="translate(275,186)"/>
  <path d="M0 0 C-0.2875415 0.71639648 -0.57508301 1.43279297 -0.87133789 2.17089844 C-1.94595554 4.86453231 -3.00296409 7.56450538 -4.05859375 10.265625 C-4.8510375 12.26062529 -5.6440226 14.25541061 -6.4375 16.25 C-7.03014648 17.77753906 -7.03014648 17.77753906 -7.63476562 19.3359375 C-8.02212891 20.30273438 -8.40949219 21.26953125 -8.80859375 22.265625 C-9.15720459 23.15024414 -9.50581543 24.03486328 -9.86499023 24.94628906 C-11 27 -11 27 -14 28 C-16.47338867 27.21484375 -16.47338867 27.21484375 -19.41796875 25.9375 C-20.50094238 25.4731958 -21.58391602 25.0088916 -22.69970703 24.53051758 C-24.42616455 23.77291138 -24.42616455 23.77291138 -26.1875 23 C-27.35394043 22.49686279 -28.52038086 21.99372559 -29.72216797 21.4753418 C-33.15235336 19.99310145 -36.57674148 18.49815611 -40 17 C-41.75893322 16.23525982 -43.51802603 15.47088648 -45.27734375 14.70703125 C-48.85674461 13.14959673 -52.43045051 11.57987613 -56 10 C-54 8 -54 8 -50.375 7.875 C-48.704375 7.936875 -48.704375 7.936875 -47 8 C-47 7.34 -47 6.68 -47 6 C-41.27164953 5.13994685 -35.54248422 4.28562392 -29.8125 3.43652344 C-27.86467613 3.14706956 -25.91708119 2.85607069 -23.96972656 2.56347656 C-21.1653065 2.14238387 -18.36010122 1.7269144 -15.5546875 1.3125 C-14.25590164 1.11563599 -14.25590164 1.11563599 -12.93087769 0.91479492 C-8.57696374 0.27728482 -4.41559834 -0.15074589 0 0 Z " fill="#393838" transform="translate(314,150)"/>
  <path d="M0 0 C10.0695786 0.59788123 20.00624051 1.66317243 30 3 C29.41405808 12.92920991 28.35783416 22.70836293 27 32.5625 C26.81995244 33.90164435 26.64026376 35.240837 26.4609375 36.58007812 C25.03493232 47.09952676 25.03493232 47.09952676 24 52 C21.93906256 49.38514622 20.33535066 46.86911911 18.94702148 43.84570312 C18.57330917 43.03806519 18.19959686 42.23042725 17.81455994 41.39831543 C17.42071609 40.53468384 17.02687225 39.67105225 16.62109375 38.78125 C16.20835709 37.88635864 15.79562042 36.99146729 15.37037659 36.06945801 C14.05494985 33.21500329 12.74605557 30.35761023 11.4375 27.5 C10.12396039 24.64305735 8.80910667 21.78672293 7.49391174 18.93054199 C6.67683186 17.15484177 5.86097835 15.3785766 5.04649353 13.60168457 C4.67593338 12.79404663 4.30537323 11.98640869 3.92358398 11.15429688 C3.4375193 10.09317688 3.4375193 10.09317688 2.94163513 9.01062012 C2.29500901 7.62991602 1.60483258 6.26903581 0.879776 4.92785645 C0 3 0 3 0 0 Z " fill="#4A4240" transform="translate(315,118)"/>
  <path d="M0 0 C1.60280413 4.06328949 0.42006969 7.79852324 -0.51171875 11.88671875 C-0.76596367 13.04963188 -0.76596367 13.04963188 -1.02534485 14.23603821 C-1.57107437 16.72177977 -2.12921671 19.20455134 -2.6875 21.6875 C-3.04440956 23.30776894 -3.40053678 24.92821043 -3.75585938 26.54882812 C-6.06988567 37.0562628 -8.50918935 47.53321517 -11 58 C-14.45595439 57.42706264 -15.96153364 56.35507652 -18.27734375 53.76171875 C-19.17163086 52.77848633 -19.17163086 52.77848633 -20.08398438 51.77539062 C-21.00147461 50.74188477 -21.00147461 50.74188477 -21.9375 49.6875 C-23.15166112 48.33428331 -24.36904146 46.98394716 -25.58984375 45.63671875 C-26.16694092 44.99814941 -26.74403809 44.35958008 -27.33862305 43.70166016 C-29.10891703 41.79766585 -29.10891703 41.79766585 -31.953125 39.81640625 C-34 38 -34 38 -34.26953125 35.640625 C-34.04330078 34.45726562 -34.04330078 34.45726562 -33.8125 33.25 C-33.67457031 32.45078125 -33.53664063 31.6515625 -33.39453125 30.828125 C-33.26433594 30.22484375 -33.13414062 29.6215625 -33 29 C-32.67 29 -32.34 29 -32 29 C-31.67 30.65 -31.34 32.3 -31 34 C-28.14153993 31.17097124 -25.28905016 28.33599221 -22.4375 25.5 C-21.23770508 24.31277344 -21.23770508 24.31277344 -20.01367188 23.1015625 C-15.66082281 18.76648016 -11.46241887 14.36988798 -7.48022461 9.69067383 C-6.09205828 8.10514656 -4.64604486 6.64437031 -3.125 5.1875 C-0.79349596 3.10416336 -0.79349596 3.10416336 0 0 Z " fill="#48453F" transform="translate(297,216)"/>
  <path d="M0 0 C-1.32210291 3.0118602 -2.63389503 4.80540131 -5.203125 6.84765625 C-5.84693115 7.36505371 -6.4907373 7.88245117 -7.15405273 8.41552734 C-7.84571533 8.95902832 -8.53737793 9.5025293 -9.25 10.0625 C-9.96293213 10.63178223 -10.67586426 11.20106445 -11.41040039 11.78759766 C-13.60077459 13.53300278 -15.79933093 15.2676007 -18 17 C-19.28523383 18.01682903 -20.57039423 19.03375088 -21.85546875 20.05078125 C-24.18305339 21.88897309 -26.51641176 23.7194008 -28.85546875 25.54296875 C-30.84532721 27.09777741 -32.82807504 28.66176709 -34.80078125 30.23828125 C-35.60902344 30.88152344 -36.41726563 31.52476562 -37.25 32.1875 C-38.27867187 33.01314453 -38.27867187 33.01314453 -39.328125 33.85546875 C-41 35 -41 35 -43 35 C-45.2054634 24.95726488 -45.20430975 15.21548751 -45 5 C-11.98619936 -0.4358618 -11.98619936 -0.4358618 0 0 Z " fill="#3D3833" transform="translate(405,198)"/>
  <path d="M0 0 C0.66 0.33 1.32 0.66 2 1 C2.66 1 3.32 1 4 1 C7.33333333 1 10.66666667 1 14 1 C14.33 2.65 14.66 4.3 15 6 C12.80516417 7.46322389 10.68038 8.74430366 8.375 10 C4.97179804 11.6051726 4.97179804 11.6051726 4 14 C4.733396 14.2686084 5.46679199 14.5372168 6.22241211 14.81396484 C8.92898283 15.96967554 11.05246232 17.27051051 13.44140625 18.9765625 C14.26664795 19.56115234 15.09188965 20.14574219 15.94213867 20.74804688 C16.80685791 21.36744141 17.67157715 21.98683594 18.5625 22.625 C20.36127912 23.89942615 22.16075562 25.17286858 23.9609375 26.4453125 C24.8281543 27.05922852 25.69537109 27.67314453 26.58886719 28.30566406 C30.49683107 31.05184363 34.45921674 33.70472109 38.46875 36.30078125 C41 38 41 38 43.40625 39.91796875 C47.33352515 43.10780382 47.33352515 43.10780382 52.1328125 43.875 C54.55518824 43.11095317 56.71894038 42.11894249 59 41 C61.14104846 40.07221233 63.28707668 39.15584658 65.4375 38.25 C66.44683594 37.80140625 67.45617187 37.3528125 68.49609375 36.890625 C69.32238281 36.59671875 70.14867187 36.3028125 71 36 C71.66 36.33 72.32 36.66 73 37 C71.39565531 41.68962294 69.80193559 43.10693543 65.328125 45.32421875 C63.80445313 45.99904297 63.80445313 45.99904297 62.25 46.6875 C61.24453125 47.14511719 60.2390625 47.60273438 59.203125 48.07421875 C54.26552135 49.50130663 50.6789074 48.86003976 46.1328125 46.53125 C45.14023437 45.8609375 44.14765625 45.190625 43.125 44.5 C42.55330078 44.11835693 41.98160156 43.73671387 41.39257812 43.34350586 C40.05217989 42.44461239 38.7162641 41.53901512 37.38378906 40.62841797 C34.60546337 38.73048348 31.81446739 36.85185641 29.0234375 34.97265625 C18.74979382 28.03732525 8.52040238 21.05011736 -1.5234375 13.78515625 C-3.32362315 12.48754609 -5.15358675 11.23094217 -7 10 C-7.1875 6.875 -7.1875 6.875 -7 4 C-1.7265625 0.77734375 -1.7265625 0.77734375 0 0 Z " fill="#2F2D2A" transform="translate(304,233)"/>
  <path d="M0 0 C1.1875 1.9375 1.1875 1.9375 1.125 4.5625 C-0.0827222 8.91029994 -1.87063054 12.87312206 -3.8125 16.9375 C-4.575625 16.751875 -5.33875 16.56625 -6.125 16.375 C-8.90217375 15.70930827 -8.90217375 15.70930827 -11.8125 16.9375 C-11.35617707 11.55288942 -10.69471682 8.57119201 -7.8125 3.9375 C-15.59097343 5.05464714 -23.36881948 6.17608491 -31.14624023 7.30053711 C-33.79318942 7.68302777 -36.44033156 8.06414097 -39.08764648 8.4440918 C-42.88823722 8.99008413 -46.68830246 9.53961068 -50.48828125 10.08984375 C-52.26964226 10.34458717 -52.26964226 10.34458717 -54.08699036 10.60447693 C-55.18790512 10.76456741 -56.28881989 10.9246579 -57.4230957 11.08959961 C-58.39350296 11.22949814 -59.36391022 11.36939667 -60.36372375 11.51353455 C-62.9388747 11.89642992 -62.9388747 11.89642992 -65.8125 12.9375 C-67.02444203 15.43414854 -67.02444203 15.43414854 -68.0625 18.375 C-70.27722572 23.6036491 -70.27722572 23.6036491 -72.69140625 25.109375 C-74.625 25.625 -74.625 25.625 -77.8125 25.9375 C-73.944448 12.75095909 -73.944448 12.75095909 -68.05288696 9.33963013 C-64.84412361 7.95118368 -62.23254301 7.32566391 -58.77880859 6.87841797 C-57.02701797 6.64335037 -57.02701797 6.64335037 -55.23983765 6.40353394 C-53.9928006 6.24716461 -52.74576355 6.09079529 -51.4609375 5.9296875 C-49.48771544 5.66851648 -47.51449358 5.40734383 -45.54128456 5.1460743 C-42.78953135 4.78453477 -40.03652844 4.43303921 -37.2835083 4.08129883 C-32.45645758 3.46226236 -27.63160539 2.82628413 -22.80654907 2.19192505 C-20.24058372 1.85560307 -17.67416641 1.52270794 -15.10726929 1.193573 C-13.9457132 1.04316559 -12.7841571 0.89275818 -11.58740234 0.73779297 C-10.56625336 0.60694305 -9.54510437 0.47609314 -8.49301147 0.34127808 C-5.86409589 -0.000867 -5.86409589 -0.000867 -3.56484985 -0.67892456 C-1.8125 -1.0625 -1.8125 -1.0625 0 0 Z " fill="#238EC8" transform="translate(321.8125,146.0625)"/>
  <path d="M0 0 C6.75 -0.125 6.75 -0.125 9 1 C9 1.66 9 2.32 9 3 C9.53625 3.20882812 10.0725 3.41765625 10.625 3.6328125 C13.92410975 5.53197107 16.37329986 8.16377733 19 10.875 C19.52078125 11.40480469 20.0415625 11.93460938 20.578125 12.48046875 C21.59438905 13.51469706 22.60556059 14.55395893 23.61108398 15.59863281 C24.80291474 16.80114794 26.06941163 17.92884005 27.34765625 19.0390625 C30.12847163 22.33922637 29.46653729 25.55106125 29.33984375 29.69140625 C28.89252861 34.0463019 27.88878525 38.11455018 26.65625 42.30859375 C26.00422915 44.98265546 25.88066724 47.26031879 26 50 C24.515 50.495 24.515 50.495 23 51 C22.67 52.98 22.34 54.96 22 57 C22.66 57.33 23.32 57.66 24 58 C23.34 58 22.68 58 22 58 C21.96334229 58.64106689 21.92668457 59.28213379 21.88891602 59.94262695 C21.33645233 67.587659 19.81109161 74.76703392 17.9375 82.1875 C17.65583984 83.33025391 17.37417969 84.47300781 17.08398438 85.65039062 C16.39645892 88.43545138 15.70170417 91.21848437 15 94 C14.34 94 13.68 94 13 94 C13.33 90.04 13.66 86.08 14 82 C13.34 84.31 12.68 86.62 12 89 C11.01 88.67 10.02 88.34 9 88 C9.66 88 10.32 88 11 88 C11.12238037 86.88560547 11.24476074 85.77121094 11.37084961 84.62304688 C11.98897023 79.69430729 13.00673531 74.88128132 14.06640625 70.03125 C14.26475571 69.11033569 14.46310516 68.18942139 14.66746521 67.24060059 C15.29591409 64.32635829 15.9291276 61.41317575 16.5625 58.5 C16.99185284 56.51308917 17.42089245 54.52611064 17.84960938 52.5390625 C18.89611913 47.6919178 19.94690054 42.84571709 21 38 C21.33 38 21.66 38 22 38 C22 39.98 22 41.96 22 44 C22.66 44 23.32 44 24 44 C24.75592919 40.01112367 25.41363436 36.01733156 26 32 C26.18755859 30.75283203 26.18755859 30.75283203 26.37890625 29.48046875 C26.65934845 26.07339431 26.55677113 23.88846456 24.71484375 20.94921875 C22.91173385 18.83395315 21.00830612 16.92098846 19 15 C18.32839844 14.30648437 17.65679687 13.61296875 16.96484375 12.8984375 C9.70584674 4.78648211 9.70584674 4.78648211 0 1 C0 0.67 0 0.34 0 0 Z " fill="#9FB914" transform="translate(275,186)"/>
  <path d="M0 0 C1.6875 0.875 1.6875 0.875 2.6875 2.875 C2.90684605 4.33688647 3.07807565 5.80618054 3.22265625 7.27734375 C3.30999023 8.16309082 3.39732422 9.04883789 3.48730469 9.96142578 C3.57399414 10.90228027 3.66068359 11.84313477 3.75 12.8125 C3.83797852 13.76366699 3.92595703 14.71483398 4.01660156 15.69482422 C5.59472096 33.51416856 5.59472096 33.51416856 2.6875 37.875 C2.0275 37.875 1.3675 37.875 0.6875 37.875 C0.1925 30.45 0.1925 30.45 -0.3125 22.875 C0.3475 22.875 1.0075 22.875 1.6875 22.875 C0.58963575 17.46712615 0.58963575 17.46712615 -3.3125 13.875 C-3.72093923 11.16296348 -3.44586867 8.6312858 -3.3125 5.875 C-10.0032494 10.52817777 -16.35748512 15.48505301 -22.625 20.6875 C-28.08513386 25.21830127 -33.55936277 29.72403902 -39.125 34.125 C-39.69323486 34.5785083 -40.26146973 35.0320166 -40.84692383 35.49926758 C-43.55167506 37.62656775 -46.1497496 39.49656157 -49.3125 40.875 C-48.625 38 -48.625 38 -47.3125 34.875 C-44.6875 33.5 -44.6875 33.5 -42.3125 32.875 C-42.3125 32.215 -42.3125 31.555 -42.3125 30.875 C-40.6625 30.215 -39.0125 29.555 -37.3125 28.875 C-37.3125 28.215 -37.3125 27.555 -37.3125 26.875 C-35.6328125 25.3671875 -35.6328125 25.3671875 -33.4375 23.75 C-32.71820313 23.21117187 -31.99890625 22.67234375 -31.2578125 22.1171875 C-29.3125 20.875 -29.3125 20.875 -27.3125 20.875 C-27.3125 20.215 -27.3125 19.555 -27.3125 18.875 C-25.90388963 17.90238808 -24.48870755 16.93766588 -23.0390625 16.02734375 C-21.25616112 14.83739826 -19.67915529 13.53061408 -18.0625 12.125 C-15.3125 9.875 -15.3125 9.875 -13.3125 9.875 C-13.3125 9.215 -13.3125 8.555 -13.3125 7.875 C-11.6625 7.215 -10.0125 6.555 -8.3125 5.875 C-8.3125 5.215 -8.3125 4.555 -8.3125 3.875 C-3.22211678 -0.17416847 -3.22211678 -0.17416847 0 0 Z " fill="#DDC504" transform="translate(408.3125,161.125)"/>
  <path d="M0 0 C1.86591797 0.14888672 1.86591797 0.14888672 3.76953125 0.30078125 C7.63490797 0.65450371 11.4688799 1.08689319 15.3125 1.625 C15.6425 3.275 15.9725 4.925 16.3125 6.625 C14.45812138 6.48188704 12.60400571 6.33536549 10.75 6.1875 C9.71746094 6.10628906 8.68492187 6.02507812 7.62109375 5.94140625 C4.16451316 5.61084778 0.74804224 5.12597943 -2.6875 4.625 C-2.29369141 5.49302246 -1.89988281 6.36104492 -1.49414062 7.25537109 C-0.03753834 10.4706698 1.41571251 13.68743896 2.86669922 16.90527344 C3.4958904 18.2987841 4.1264191 19.69169164 4.75830078 21.08398438 C5.66529374 23.0830709 6.56748538 25.08426313 7.46875 27.0859375 C7.75310913 27.70995453 8.03746826 28.33397156 8.33044434 28.97689819 C10.3125 33.39725659 10.3125 33.39725659 10.3125 35.625 C5.29796162 33.95348721 2.47192284 31.66675212 -0.15136719 27.04711914 C-1.58998071 23.93144058 -3.02620773 20.81567931 -4.4375 17.6875 C-4.94410156 16.60275391 -5.45070313 15.51800781 -5.97265625 14.40039062 C-6.45089844 13.35173828 -6.92914063 12.30308594 -7.421875 11.22265625 C-8.07494629 9.79191772 -8.07494629 9.79191772 -8.74121094 8.33227539 C-9.7073991 5.56806988 -9.87865282 3.52755677 -9.6875 0.625 C-6.14425077 -0.55608308 -3.71681701 -0.29734536 0 0 Z " fill="#DB3234" transform="translate(317.6875,113.375)"/>
  <path d="M0 0 C5.63841857 0.06916936 11.19203781 0.60191117 16.7890625 1.2578125 C18.28566406 1.39703125 18.28566406 1.39703125 19.8125 1.5390625 C25.18142293 2.17821999 29.58136793 2.95079039 33.50537109 6.84423828 C37.62821177 12.53271466 40.30122818 19.12602059 43.1640625 25.5078125 C43.84218861 26.98379129 44.52186666 28.45905807 45.203125 29.93359375 C47.22140611 34.31951118 49.19764686 38.72344376 51.1640625 43.1328125 C51.50421387 43.8921106 51.84436523 44.65140869 52.19482422 45.43371582 C53.18929679 47.65686987 54.17785964 49.88254185 55.1640625 52.109375 C55.46707275 52.78761322 55.77008301 53.46585144 56.08227539 54.16464233 C58.1640625 58.90113573 58.1640625 58.90113573 58.1640625 61.1328125 C56.36010742 61.00512695 56.36010742 61.00512695 54.1640625 60.1328125 C52.56762695 57.58276367 52.56762695 57.58276367 51.02734375 54.17578125 C50.74673096 53.56473038 50.46611816 52.9536795 50.17700195 52.32411194 C49.57626014 51.01064192 48.98220851 49.69409549 48.39419556 48.37487793 C47.47379148 46.31410823 46.53209968 44.2643111 45.5847168 42.21582031 C42.77980513 36.12042468 40.07214302 30.01452251 37.6328125 23.76171875 C34.60131519 14.78805287 34.60131519 14.78805287 28.171875 8.4765625 C25.32441395 7.92590846 23.03128017 7.7683811 20.1640625 8.1328125 C19.8340625 6.4828125 19.5040625 4.8328125 19.1640625 3.1328125 C18.1328125 3.1534375 17.1015625 3.1740625 16.0390625 3.1953125 C-0.7109375 3.1953125 -0.7109375 3.1953125 -4.8359375 1.1328125 C-3.8359375 0.1328125 -3.8359375 0.1328125 0 0 Z " fill="#E84D4F" transform="translate(313.8359375,111.8671875)"/>
  <path d="M0 0 C0.99 0.33 1.98 0.66 3 1 C-1.75 5 -1.75 5 -4 5 C-4 5.66 -4 6.32 -4 7 C-5.65 7.66 -7.3 8.32 -9 9 C-9 9.66 -9 10.32 -9 11 C-9.639375 11.103125 -10.27875 11.20625 -10.9375 11.3125 C-11.618125 11.539375 -12.29875 11.76625 -13 12 C-13.33 12.99 -13.66 13.98 -14 15 C-15.55859375 16.38671875 -15.55859375 16.38671875 -17.4375 17.6875 C-18.05496094 18.12449219 -18.67242187 18.56148437 -19.30859375 19.01171875 C-21 20 -21 20 -23 20 C-23 20.66 -23 21.32 -23 22 C-24.6796875 23.5078125 -24.6796875 23.5078125 -26.875 25.125 C-27.59429687 25.66382813 -28.31359375 26.20265625 -29.0546875 26.7578125 C-31 28 -31 28 -33 28 C-33 28.66 -33 29.32 -33 30 C-34.65 30.66 -36.3 31.32 -38 32 C-38 32.66 -38 33.32 -38 34 C-39.65 34.66 -41.3 35.32 -43 36 C-43 36.66 -43 37.32 -43 38 C-43.804375 38.2475 -44.60875 38.495 -45.4375 38.75 C-46.283125 39.1625 -47.12875 39.575 -48 40 C-48.59070014 41.94603274 -48.59070014 41.94603274 -49 44 C-49.67160156 44.38414062 -50.34320313 44.76828125 -51.03515625 45.1640625 C-53.37946768 46.93754926 -53.37946768 46.93754926 -53.2421875 50.37109375 C-53.14260813 51.72842946 -53.01881366 53.08413608 -52.875 54.4375 C-52.81513916 55.14817627 -52.75527832 55.85885254 -52.69360352 56.59106445 C-52.2091948 61.92435049 -51.42121661 67.19123986 -50.40234375 72.44921875 C-49.99831507 75.01068212 -49.93004304 77.41159251 -50 80 C-50.33 79.01 -50.66 78.02 -51 77 C-51.99 76.67 -52.98 76.34 -54 76 C-53.34 76 -52.68 76 -52 76 C-52.28875 74.783125 -52.5775 73.56625 -52.875 72.3125 C-57.76451055 50.20492732 -57.76451055 50.20492732 -54.46875 44.21875 C-51.67873198 40.21204636 -47.94647774 37.4140455 -44.125 34.4375 C-42.73155204 33.33230705 -41.3383196 32.22684232 -39.9453125 31.12109375 C-39.27790039 30.59370605 -38.61048828 30.06631836 -37.92285156 29.52294922 C-32.43108903 25.28540211 -32.43108903 25.28540211 -28 20 C-27.34 20 -26.68 20 -26 20 C-24.27032324 18.89244145 -24.27032324 18.89244145 -22.40234375 17.40234375 C-21.6870752 16.85078613 -20.97180664 16.29922852 -20.23486328 15.73095703 C-19.4767334 15.13911621 -18.71860352 14.54727539 -17.9375 13.9375 C-17.16905762 13.34565918 -16.40061523 12.75381836 -15.60888672 12.14404297 C-10.89183305 8.50471682 -6.22506021 4.81070799 -1.6640625 0.9765625 C-1.11492187 0.65429688 -0.56578125 0.33203125 0 0 Z " fill="#BCA53C" transform="translate(404,160)"/>
  <path d="M0 0 C3.96694407 1.35984764 6.4846527 4.25262354 9.375 7.1875 C10.10299805 7.92299072 10.10299805 7.92299072 10.84570312 8.67333984 C13.51903504 11.39766905 16.06725878 14.18492833 18.5 17.125 C20.74343251 20.19691068 20.74343251 20.19691068 24 21 C24.12375 19.865625 24.2475 18.73125 24.375 17.5625 C24.684375 15.7990625 24.684375 15.7990625 25 14 C25.66 13.67 26.32 13.34 27 13 C26.67 17.62 26.34 22.24 26 27 C20 27 20 27 17.40698242 25.15161133 C16.56498291 24.3036499 15.7229834 23.45568848 14.85546875 22.58203125 C13.93185547 21.65712891 13.00824219 20.73222656 12.05664062 19.77929688 C11.58589111 19.29195068 11.1151416 18.80460449 10.63012695 18.30249023 C9.19175244 16.81689205 7.72853384 15.35978642 6.25976562 13.90429688 C-1.4928177 6.03185632 -1.4928177 6.03185632 -2 1 C-1.34 0.67 -0.68 0.34 0 0 Z " fill="#A9C319" transform="translate(263,254)"/>
  <path d="M0 0 C2.64 0 5.28 0 8 0 C9.33098018 8.52626601 8.4691149 15.69935256 6.578125 24.0703125 C6.31747253 25.27315887 6.05682007 26.47600525 5.78826904 27.71530151 C5.23781561 30.23641266 4.67936428 32.75578971 4.11328125 35.2734375 C3.24577105 39.14386761 2.4103468 43.02028391 1.578125 46.8984375 C1.0383433 49.35197795 0.49674202 51.80511897 -0.046875 54.2578125 C-0.29701355 55.42120148 -0.5471521 56.58459045 -0.80487061 57.78323364 C-1.04812073 58.84879486 -1.29137085 59.91435608 -1.54199219 61.01220703 C-1.75152527 61.95387726 -1.96105835 62.89554749 -2.17694092 63.86575317 C-2.44855042 64.57005463 -2.72015991 65.27435608 -3 66 C-4.485 66.495 -4.485 66.495 -6 67 C-6.32488644 60.2724735 -5.12389484 54.5553828 -3.4375 48.0625 C-0.76641216 37.39854484 1.61755413 26.69478237 3.875 15.9375 C4.0317923 15.19178741 4.18858459 14.44607483 4.35012817 13.67776489 C5.23797919 9.45278851 6.12115184 5.22685983 7 1 C4.69 1 2.38 1 0 1 C0 0.67 0 0.34 0 0 Z " fill="#B4CD2A" transform="translate(266,189)"/>
  <path d="M0 0 C1.5625 1.125 1.5625 1.125 3 3 C2.87052685 8.43787222 0.30504897 13.1754789 -2 18 C-2.763125 17.814375 -3.52625 17.62875 -4.3125 17.4375 C-7.08967375 16.77180827 -7.08967375 16.77180827 -10 18 C-9.54827276 12.66961851 -8.97264476 9.55061705 -6 5 C-6.57967529 5.09087891 -7.15935059 5.18175781 -7.7565918 5.27539062 C-10.39963588 5.68749945 -13.04354162 6.09380017 -15.6875 6.5 C-16.59951172 6.64308594 -17.51152344 6.78617188 -18.45117188 6.93359375 C-19.78051758 7.13662109 -19.78051758 7.13662109 -21.13671875 7.34375 C-22.35427856 7.53227539 -22.35427856 7.53227539 -23.59643555 7.72460938 C-26.08533405 8.00977723 -28.49706689 8.04674739 -31 8 C-30.67 7.34 -30.34 6.68 -30 6 C-27.67089844 5.4375 -27.67089844 5.4375 -24.609375 5 C-23.50722656 4.835 -22.40507812 4.67 -21.26953125 4.5 C-20.10808594 4.335 -18.94664062 4.17 -17.75 4 C-15.47315832 3.67217578 -13.19707528 3.33902868 -10.921875 3 C-9.39965332 2.7834375 -9.39965332 2.7834375 -7.84667969 2.5625 C-5.03340972 2.00660171 -2.61905923 1.15281837 0 0 Z " fill="#0880C1" transform="translate(320,145)"/>
  <path d="M0 0 C1.5625 1.0625 1.5625 1.0625 3 3 C2.71005001 9.84656117 -0.05725585 15.91205448 -2.625 22.1875 C-3.24568359 23.80688477 -3.24568359 23.80688477 -3.87890625 25.45898438 C-7.83571513 35.14655139 -7.83571513 35.14655139 -13.01855469 37.40893555 C-16.91428246 38.5710298 -20.78680291 39.27228136 -24.8125 39.8125 C-25.65103516 39.94591797 -26.48957031 40.07933594 -27.35351562 40.21679688 C-33.40336324 41.08637528 -38.95770493 40.86042024 -45 40 C-45 39.67 -45 39.34 -45 39 C-44.18321777 38.89453857 -43.36643555 38.78907715 -42.52490234 38.68041992 C-39.47094775 38.28084316 -36.41849195 37.87155217 -33.36669922 37.45581055 C-31.40560932 37.19162352 -29.44303978 36.9384961 -27.48046875 36.68554688 C-26.23652344 36.51474609 -24.99257813 36.34394531 -23.7109375 36.16796875 C-22.56931152 36.01610107 -21.42768555 35.8642334 -20.25146484 35.70776367 C-16.7315073 34.94155576 -14.07696432 33.86851409 -11 32 C-9.51739801 29.4186317 -8.42531869 27.1795244 -7.375 24.4375 C-7.08359131 23.72094238 -6.79218262 23.00438477 -6.49194336 22.26611328 C-5.91292744 20.8371554 -5.34199248 19.40489248 -4.77978516 17.96923828 C-4.1096517 16.27691001 -3.39317749 14.60306256 -2.66796875 12.93359375 C-0.73594984 8.46195988 0.52367652 4.97492695 0 0 Z " fill="#15557A" transform="translate(322,146)"/>
  <path d="M0 0 C1.9375 0.375 1.9375 0.375 4 1 C5.12828388 3.25656775 5.2887881 4.89545304 5.53515625 7.40234375 C5.62249023 8.28809082 5.70982422 9.17383789 5.79980469 10.08642578 C5.88649414 11.02728027 5.97318359 11.96813477 6.0625 12.9375 C6.15047852 13.88866699 6.23845703 14.83983398 6.32910156 15.81982422 C7.90722096 33.63916856 7.90722096 33.63916856 5 38 C4.34 38 3.68 38 3 38 C2.505 30.575 2.505 30.575 2 23 C2.66 23 3.32 23 4 23 C3.40138258 20.64828869 2.73075648 18.3140622 2 16 C1.34 15.67 0.68 15.34 0 15 C0 11.7 0 8.4 0 5 C-0.99 4.67 -1.98 4.34 -3 4 C-2.01 2.68 -1.02 1.36 0 0 Z " fill="#E6CF0C" transform="translate(406,161)"/>
  <path d="M0 0 C0.66 0.33 1.32 0.66 2 1 C2.4140625 3.50390625 2.4140625 3.50390625 2.625 6.5625 C2.69976562 7.57441406 2.77453125 8.58632812 2.8515625 9.62890625 C2.90054687 10.41136719 2.94953125 11.19382813 3 12 C3.66 12 4.32 12 5 12 C4.63088042 14.67611698 4.15144437 15.8431469 2.25 17.8125 C-0.6004589 19.31690887 -1.98088413 18.92250763 -5 18 C-5.85298376 14.32612505 -6.10789471 10.9552607 -6.0625 7.1875 C-6.05347656 6.21167969 -6.04445313 5.23585937 -6.03515625 4.23046875 C-6.02355469 3.49441406 -6.01195312 2.75835937 -6 2 C-5.38125 1.855625 -4.7625 1.71125 -4.125 1.5625 C-1.96741678 1.06847775 -1.96741678 1.06847775 0 0 Z " fill="#E5CC03" transform="translate(359,222)"/>
  <path d="M0 0 C1.32 0 2.64 0 4 0 C5.59555725 3.49028148 6.32049797 6.15402433 6 10 C5.67 10.33 5.34 10.66 5 11 C2.29891496 10.909084 -0.36930311 10.76259234 -3.0625 10.5625 C-3.82111328 10.51029297 -4.57972656 10.45808594 -5.36132812 10.40429688 C-7.24121722 10.27424165 -9.12065685 10.13771962 -11 10 C-10.979375 9.236875 -10.95875 8.47375 -10.9375 7.6875 C-10.87057159 4.89814214 -10.87057159 4.89814214 -12 2 C-8.04 2 -4.08 2 0 2 C0 1.34 0 0.68 0 0 Z " fill="#E33536" transform="translate(369,173)"/>
  <path d="M0 0 C6.75 -0.125 6.75 -0.125 9 1 C9 1.66 9 2.32 9 3 C9.53625 3.20882812 10.0725 3.41765625 10.625 3.6328125 C13.92410975 5.53197107 16.37329986 8.16377733 19 10.875 C19.52078125 11.40480469 20.0415625 11.93460938 20.578125 12.48046875 C21.59438905 13.51469706 22.60556059 14.55395893 23.61108398 15.59863281 C24.80291474 16.80114794 26.06941163 17.92884005 27.34765625 19.0390625 C30.12847163 22.33922637 29.46653729 25.55106125 29.33984375 29.69140625 C28.89252861 34.0463019 27.88878525 38.11455018 26.65625 42.30859375 C26.00422915 44.98265546 25.88066724 47.26031879 26 50 C25.34 50 24.68 50 24 50 C23.85006543 45.27706092 23.84997764 41.09199071 25 36.5 C26.06950335 31.94470796 27.06860882 27.63892202 26 23 C24.06848824 19.90018781 21.6295764 17.51524699 19 15 C18.32839844 14.30648437 17.65679687 13.61296875 16.96484375 12.8984375 C9.70584674 4.78648211 9.70584674 4.78648211 0 1 C0 0.67 0 0.34 0 0 Z " fill="#718B37" transform="translate(275,186)"/>
  <path d="M0 0 C1.77050781 0.04711914 1.77050781 0.04711914 4 1 C5.42474295 3.42073325 6.56318314 5.68442725 7.671875 8.24609375 C8.16279633 9.33556053 8.16279633 9.33556053 8.66363525 10.44703674 C9.35275407 11.98320345 10.03485888 13.52253301 10.71044922 15.06469727 C11.74700984 17.43067488 12.80302528 19.78713707 13.86328125 22.14257812 C14.52979416 23.63490432 15.19519689 25.12772696 15.859375 26.62109375 C16.17493347 27.32946884 16.49049194 28.03784393 16.81561279 28.76768494 C19 33.76353876 19 33.76353876 19 36 C17.21362305 35.90527344 17.21362305 35.90527344 15 35 C13.65748808 32.82809377 12.61127231 30.83088068 11.58203125 28.515625 C11.27931808 27.86301697 10.97660492 27.21040894 10.66471863 26.5380249 C10.02689596 25.15575791 9.39606376 23.77024701 8.77172852 22.38183594 C7.81944573 20.26543653 6.84643764 18.15963491 5.86914062 16.0546875 C5.251357 14.70890515 4.63478084 13.36256772 4.01953125 12.015625 C3.73100784 11.3883551 3.44248444 10.76108521 3.1452179 10.11480713 C1.64590563 6.76613125 0.54844262 3.63219568 0 0 Z " fill="#DA3D3E" transform="translate(353,137)"/>
  <path d="M0 0 C0.99 0 1.98 0 3 0 C3.33 2.64 3.66 5.28 4 8 C3.34 8 2.68 8 2 8 C2.24878906 9.0621875 2.49757813 10.124375 2.75390625 11.21875 C4.99937906 22.35919255 4.99937906 22.35919255 2.375 26.66796875 C0.02375979 28.72133224 -2.33769043 30.37394323 -5 32 C-6.35896606 32.99346797 -7.71380077 33.99263823 -9.0625 35 C-10.031875 35.66 -11.00125 36.32 -12 37 C-12 33.56563673 -11.59902118 33.11949702 -9.4375 30.625 C-8.96183594 30.06039062 -8.48617188 29.49578125 -7.99609375 28.9140625 C-6 27 -6 27 -4.22094727 26.05688477 C-2.07784811 24.86759286 -0.59048242 23.87605061 1 22 C1.73272796 18.16715212 1.34499393 14.54757889 0.9375 10.6875 C0.85822266 9.66076172 0.77894531 8.63402344 0.69726562 7.57617188 C0.49722191 5.0462073 0.26392554 2.52396661 0 0 Z " fill="#DCC50E" transform="translate(406,176)"/>
  <path d="M0 0 C-0.33 0.99 -0.66 1.98 -1 3 C-5.14404234 3.67812422 -9.2904726 4.34039758 -13.4375 5 C-15.18450195 5.28617188 -15.18450195 5.28617188 -16.96679688 5.578125 C-23.40060851 6.59303613 -29.48734442 7.22289303 -36 7 C-36 6.01 -36 5.02 -36 4 C-34.61941406 3.81824219 -34.61941406 3.81824219 -33.2109375 3.6328125 C-31.94507813 3.46523437 -30.67921875 3.29765625 -29.375 3.125 C-28.70146484 3.03621582 -28.02792969 2.94743164 -27.33398438 2.85595703 C-21.6179609 2.09675597 -15.91720491 1.24909124 -10.21875 0.3671875 C-6.78669903 -0.02433288 -3.45134041 -0.06100854 0 0 Z " fill="#13577D" transform="translate(275,186)"/>
  <path d="M0 0 C1.03115279 3.26913624 0.9638984 5.86041348 0.5625 9.25 C0.46066406 10.14203125 0.35882813 11.0340625 0.25390625 11.953125 C0.17011719 12.62859375 0.08632813 13.3040625 0 14 C-2.5 14.5 -2.5 14.5 -6 14 C-9.04247575 11.6608923 -11.68956313 9.0668997 -14 6 C-14 5.01 -14 4.02 -14 3 C-13.34 3 -12.68 3 -12 3 C-11.67 2.34 -11.34 1.68 -11 1 C-10.60167969 1.42152344 -10.20335937 1.84304688 -9.79296875 2.27734375 C-9.26316406 2.82519531 -8.73335938 3.37304688 -8.1875 3.9375 C-7.66542969 4.48277344 -7.14335937 5.02804687 -6.60546875 5.58984375 C-4.94187802 7.23519092 -4.94187802 7.23519092 -2 8 C-1.855625 6.865625 -1.71125 5.73125 -1.5625 4.5625 C-1 1 -1 1 0 0 Z " fill="#AAC615" transform="translate(289,267)"/>
  <path d="M0 0 C3.0502678 2.58569116 4.31710302 5.50424963 5.91796875 9.12890625 C6.44970703 10.32837891 6.98144531 11.52785156 7.52929688 12.76367188 C7.8012085 13.38685303 8.07312012 14.01003418 8.35327148 14.65209961 C9.18763009 16.5627979 10.03334073 18.46815483 10.88085938 20.37304688 C15 29.72284226 15 29.72284226 15 32 C12 31 12 31 10.55786133 28.57910156 C10.0708374 27.5269043 9.58381348 26.47470703 9.08203125 25.390625 C8.55029297 24.24335938 8.01855469 23.09609375 7.47070312 21.9140625 C7.1987915 21.31239258 6.92687988 20.71072266 6.64672852 20.09082031 C5.81913536 18.26464167 4.96920642 16.44863931 4.11914062 14.6328125 C-0.36103843 4.85190876 -0.36103843 4.85190876 0 0 Z " fill="#BD312F" transform="translate(308,114)"/>
  <path d="M0 0 C0.33 0.66 0.66 1.32 1 2 C1.66 2.33 2.32 2.66 3 3 C2.34 3 1.68 3 1 3 C0.94501343 3.96160034 0.94501343 3.96160034 0.88891602 4.94262695 C0.33645233 12.587659 -1.18890839 19.76703392 -3.0625 27.1875 C-3.34416016 28.33025391 -3.62582031 29.47300781 -3.91601562 30.65039062 C-4.60354108 33.43545138 -5.29829583 36.21848437 -6 39 C-6.66 39 -7.32 39 -8 39 C-6.63702593 30.164028 -4.8531584 21.4671478 -2.875 12.75 C-2.45927734 10.89955078 -2.45927734 10.89955078 -2.03515625 9.01171875 C-1.35970772 6.00713737 -0.68127817 3.00326387 0 0 Z " fill="#718B30" transform="translate(296,241)"/>
  <path d="M0 0 C0 0.33 0 0.66 0 1 C-0.74161377 1.11069824 -1.48322754 1.22139648 -2.24731445 1.33544922 C-5.6035978 1.84087714 -8.95801203 2.35779628 -12.3125 2.875 C-13.47974609 3.04902344 -14.64699219 3.22304687 -15.84960938 3.40234375 C-17.52700195 3.66337891 -17.52700195 3.66337891 -19.23828125 3.9296875 C-20.26993408 4.08679199 -21.30158691 4.24389648 -22.36450195 4.40576172 C-25.21155595 4.8824067 -25.21155595 4.8824067 -28 7 C-30.36010742 7.22705078 -30.36010742 7.22705078 -33.10546875 7.1953125 C-34.08837891 7.18886719 -35.07128906 7.18242187 -36.08398438 7.17578125 C-37.10814453 7.15902344 -38.13230469 7.14226562 -39.1875 7.125 C-40.22326172 7.11597656 -41.25902344 7.10695312 -42.32617188 7.09765625 C-44.88434685 7.0740786 -47.44205748 7.0411703 -50 7 C-50 6.67 -50 6.34 -50 6 C-44.16608608 5.13820653 -38.33113305 4.28396598 -32.49511719 3.43652344 C-30.51239635 3.14755173 -28.52996806 2.85656491 -26.54785156 2.56347656 C-23.68890843 2.14110004 -20.82897072 1.72612538 -17.96875 1.3125 C-17.09134155 1.18125732 -16.21393311 1.05001465 -15.30993652 0.91479492 C-10.14715469 0.17672428 -5.21548727 -0.126692 0 0 Z " fill="#42A0D3" transform="translate(315,147)"/>
  <path d="M0 0 C0.66 0 1.32 0 2 0 C2.45439453 1.21623047 2.45439453 1.21623047 2.91796875 2.45703125 C5.40190838 9.02227478 8.03270355 15.43397597 11.08203125 21.7578125 C12 24 12 24 12 27 C11.34 27 10.68 27 10 27 C8.50148763 24.0092962 7.02990829 21.00607162 5.5625 18 C5.14162109 17.16082031 4.72074219 16.32164062 4.28710938 15.45703125 C1.7382808 10.19624908 0.37195392 5.84305791 0 0 Z " fill="#BA2D2C" transform="translate(324,148)"/>
  <path d="M0 0 C2.18293432 1.1798354 4.01033481 2.495619 6 4 C5.01 5.485 5.01 5.485 4 7 C2.96875 6.34 1.9375 5.68 0.875 5 C-4.48550991 1.94763721 -9.1056738 2.8772712 -15 4 C-9.64510105 -0.20742061 -6.92781025 -1.67223006 0 0 Z " fill="#131212" transform="translate(334,225)"/>
  <path d="M0 0 C2.64 0 5.28 0 8 0 C9.22131917 9.27542396 8.3708442 14.65566107 4 23 C3.0132903 19.88925167 3.03161507 17.83557243 3.77734375 14.671875 C3.96103516 13.87265625 4.14472656 13.0734375 4.33398438 12.25 C4.53314453 11.425 4.73230469 10.6 4.9375 9.75 C5.13279297 8.90953125 5.32808594 8.0690625 5.52929688 7.203125 C6.01142286 5.13351102 6.50463863 3.06648605 7 1 C4.69 1 2.38 1 0 1 C0 0.67 0 0.34 0 0 Z " fill="#B4CD2B" transform="translate(266,189)"/>
  <path d="M0 0 C-0.33 0.66 -0.66 1.32 -1 2 C-2.9777832 2.48657227 -2.9777832 2.48657227 -5.55078125 2.81640625 C-6.47697266 2.94080078 -7.40316406 3.06519531 -8.35742188 3.19335938 C-9.33259766 3.31517578 -10.30777344 3.43699219 -11.3125 3.5625 C-13.22549359 3.8120209 -15.1382641 4.06325949 -17.05078125 4.31640625 C-17.90325439 4.42412354 -18.75572754 4.53184082 -19.6340332 4.64282227 C-21.80683368 4.97083868 -23.88033456 5.42669554 -26 6 C-26 5.01 -26 4.02 -26 3 C-23.16793882 2.49168133 -20.33470266 1.99318495 -17.5 1.5 C-16.31277344 1.28537109 -16.31277344 1.28537109 -15.1015625 1.06640625 C-9.9876082 0.18613543 -5.18887598 -0.1428131 0 0 Z " fill="#0880C1" transform="translate(281,153)"/>
  <path d="M0 0 C2.89589652 -0.02706445 5.79153795 -0.04687029 8.6875 -0.0625 C9.91243164 -0.07506836 9.91243164 -0.07506836 11.16210938 -0.08789062 C15.24499084 -0.10442051 19.01651707 -0.03035098 23 1 C22.67 1.66 22.34 2.32 22 3 C19.45805839 2.85811015 16.91652007 2.71160845 14.375 2.5625 C13.30572266 2.50352539 13.30572266 2.50352539 12.21484375 2.44335938 C8.08196318 2.19690319 4.07730976 1.76529947 0 1 C0 0.67 0 0.34 0 0 Z " fill="#BE2624" transform="translate(350,183)"/>
  <path d="M0 0 C1.32 0.33 2.64 0.66 4 1 C3.67 3.97 3.34 6.94 3 10 C1.35 8.35 -0.3 6.7 -2 5 C-1.34 5 -0.68 5 0 5 C0 3.35 0 1.7 0 0 Z " fill="#90A41A" transform="translate(286,198)"/>
  <path d="M0 0 C0.99 0 1.98 0 3 0 C3.33 2.64 3.66 5.28 4 8 C3.34 8 2.68 8 2 8 C2 10.97 2 13.94 2 17 C1.67 17 1.34 17 1 17 C0.67 11.39 0.34 5.78 0 0 Z " fill="#A1911C" transform="translate(406,176)"/>
  <path d="M0 0 C5.03985731 0.44469329 7.37634988 2.71343362 11 6 C10.67 6.99 10.34 7.98 10 9 C9.278125 8.401875 8.55625 7.80375 7.8125 7.1875 C5.08685797 4.9647189 5.08685797 4.9647189 2.1875 3.375 C1.465625 2.92125 0.74375 2.4675 0 2 C0 1.34 0 0.68 0 0 Z " fill="#161615" transform="translate(378,257)"/>
  <path d="M0 0 C0.33 0 0.66 0 1 0 C1 5.28 1 10.56 1 16 C0.01 16.33 -0.98 16.66 -2 17 C-2.21824777 10.9981863 -1.5056904 5.80766296 0 0 Z " fill="#BFD547" transform="translate(262,239)"/>
  <path d="M0 0 C1.14926266 0.95421808 2.29430541 1.91352045 3.4375 2.875 C4.07558594 3.40867187 4.71367187 3.94234375 5.37109375 4.4921875 C7 6 7 6 8 8 C7.67 8.66 7.34 9.32 7 10 C4.53199953 8.84826645 2.95216435 7.95216435 1 6 C0.60235737 4.01178687 0.26224651 2.01055661 0 0 Z " fill="#7D8B24" transform="translate(270,260)"/>
  <path d="M0 0 C1.30211046 3.90633137 0.47812346 6.19538173 -0.4375 10.1875 C-0.72496094 11.45980469 -1.01242187 12.73210937 -1.30859375 14.04296875 C-1.53675781 15.01878906 -1.76492188 15.99460938 -2 17 C-2.66 16.67 -3.32 16.34 -4 16 C-3.71767279 13.89455987 -3.4238102 11.79066411 -3.125 9.6875 C-2.96257812 8.51574219 -2.80015625 7.34398437 -2.6328125 6.13671875 C-2 3 -2 3 0 0 Z " fill="#ABC613" transform="translate(266,233)"/>
  <path d="M0 0 C0.99 0.33 1.98 0.66 3 1 C1.25 6.75 1.25 6.75 -1 9 C-1 8.34 -1 7.68 -1 7 C-1.66 7 -2.32 7 -3 7 C-3.1875 4.625 -3.1875 4.625 -3 2 C-2.01 1.34 -1.02 0.68 0 0 Z " fill="#1D6891" transform="translate(247,170)"/>
  <path d="M0 0 C4.51478398 0.53115106 7.34666857 2.36620292 11 5 C10.67 5.66 10.34 6.32 10 7 C6.4124787 5.66749209 3.1635377 4.169283 0 2 C0 1.34 0 0.68 0 0 Z " fill="#161515" transform="translate(367,250)"/>
  <path d="M0 0 C0.66 0.33 1.32 0.66 2 1 C1.01 2.485 1.01 2.485 0 4 C-0.66 4 -1.32 4 -2 4 C-2.103125 4.61875 -2.20625 5.2375 -2.3125 5.875 C-3 8 -3 8 -6 10 C-6.66 9.67 -7.32 9.34 -8 9 C-6.4169423 4.7257442 -3.49431596 2.73468206 0 0 Z " fill="#C5B037" transform="translate(358,196)"/>
  <path d="M0 0 C0.66 0 1.32 0 2 0 C2.5775 0.639375 3.155 1.27875 3.75 1.9375 C6.48382274 4.44350418 8.36785602 4.66980509 12 5 C11.67 5.66 11.34 6.32 11 7 C7.18634321 7.35475877 5.41557542 7.2619932 2.125 5.1875 C0 3 0 3 0 0 Z " fill="#BD2625" transform="translate(336,176)"/>
  <path d="M0 0 C2.22825644 2.22825644 2.69239369 3.65761628 3.625 6.625 C4.01558594 7.85089844 4.01558594 7.85089844 4.4140625 9.1015625 C4.60742188 9.72804687 4.80078125 10.35453125 5 11 C3.0625 10.625 3.0625 10.625 1 10 C-0.60725635 6.78548731 -0.05748185 3.56387464 0 0 Z " fill="#E44A4B" transform="translate(367,162)"/>
  <path d="M0 0 C0.66 0.33 1.32 0.66 2 1 C1.67 1.33 1.34 1.66 1 2 C1.66 2.33 2.32 2.66 3 3 C3 5.97 3 8.94 3 12 C2.67 12 2.34 12 2 12 C2 9.36 2 6.72 2 4 C0.02 4.99 -1.96 5.98 -4 7 C-3.6875 4.625 -3.6875 4.625 -3 2 C-2.01 1.34 -1.02 0.68 0 0 Z " fill="#C6B20D" transform="translate(403,163)"/>
  <path d="M0 0 C0.66 0.33 1.32 0.66 2 1 C1.23883449 2.15227823 0.46567307 3.2966386 -0.3125 4.4375 C-0.74175781 5.07558594 -1.17101562 5.71367187 -1.61328125 6.37109375 C-3 8 -3 8 -6 9 C-6 8.34 -6 7.68 -6 7 C-6.66 6.67 -7.32 6.34 -8 6 C-5.36 4.02 -2.72 2.04 0 0 Z " fill="#D2BD0F" transform="translate(370,227)"/>
  <path d="M0 0 C0 0.66 0 1.32 0 2 C-9.41002278 3.33257403 -9.41002278 3.33257403 -14 2 C-14 1.67 -14 1.34 -14 1 C-9.23692563 0.04738513 -4.8333472 -0.08333357 0 0 Z " fill="#195870" transform="translate(291,184)"/>
  <path d="M0 0 C2.64465038 3.1254959 3.84414715 6.08788267 5 10 C2.5625 9.375 2.5625 9.375 0 8 C-1.47368421 2.94736842 -1.47368421 2.94736842 0 0 Z " fill="#E45152" transform="translate(360,147)"/>
  <path d="M0 0 C2.22825644 2.22825644 2.69239369 3.65761628 3.625 6.625 C4.01558594 7.85089844 4.01558594 7.85089844 4.4140625 9.1015625 C4.60742188 9.72804687 4.80078125 10.35453125 5 11 C3.0625 10.625 3.0625 10.625 1 10 C-0.60725635 6.78548731 -0.05748185 3.56387464 0 0 Z " fill="#E44A4B" transform="translate(351,127)"/>
  <path d="M0 0 C0.66 0.33 1.32 0.66 2 1 C1.54625 1.4125 1.0925 1.825 0.625 2.25 C-1.09686822 3.92669589 -1.09686822 3.92669589 -2 6.125 C-3 8 -3 8 -6 9 C-6.66 8.34 -7.32 7.68 -8 7 C-5.36 4.69 -2.72 2.38 0 0 Z " fill="#CFB90D" transform="translate(395,207)"/>
  <path d="M0 0 C1.98 0 3.96 0 6 0 C6.33 1.32 6.66 2.64 7 4 C3.7 3.67 0.4 3.34 -3 3 C-2.01 2.67 -1.02 2.34 0 2 C0 1.34 0 0.68 0 0 Z " fill="#9C3939" transform="translate(325,116)"/>
  <path d="M0 0 C0.33 0 0.66 0 1 0 C1 1.98 1 3.96 1 6 C1.66 6 2.32 6 3 6 C3 7.98 3 9.96 3 12 C2.01 12.495 2.01 12.495 1 13 C1 11.35 1 9.7 1 8 C0.34 9.65 -0.32 11.3 -1 13 C-2.07310858 9.72814447 -1.89263102 7.57052408 -1.0625 4.25 C-0.86785156 3.45078125 -0.67320312 2.6515625 -0.47265625 1.828125 C-0.31667969 1.22484375 -0.16070312 0.6215625 0 0 Z " fill="#889F1D" transform="translate(296,224)"/>
  <path d="M0 0 C2.64 0 5.28 0 8 0 C9.10643764 5.83394389 9.27137992 8.76579213 6 14 C4.92689142 10.72814447 5.10736898 8.57052408 5.9375 5.25 C6.13214844 4.45078125 6.32679688 3.6515625 6.52734375 2.828125 C6.68332031 2.22484375 6.83929688 1.6215625 7 1 C4.69 1 2.38 1 0 1 C0 0.67 0 0.34 0 0 Z " fill="#BDD17B" transform="translate(266,189)"/>
  <path d="M0 0 C0.99 0 1.98 0 3 0 C2.67 1.65 2.34 3.3 2 5 C1.01 5.33 0.02 5.66 -1 6 C-1.042721 4.33388095 -1.04063832 2.66617115 -1 1 C-0.67 0.67 -0.34 0.34 0 0 Z " fill="#645C35" transform="translate(355,219)"/>
  <path d="M0 0 C-0.33 1.32 -0.66 2.64 -1 4 C-2.32 4.33 -3.64 4.66 -5 5 C-5 3.68 -5 2.36 -5 1 C-3 0 -3 0 0 0 Z " fill="#384F5C" transform="translate(316,161)"/>
  <path d="M0 0 C0.33 0.66 0.66 1.32 1 2 C1.66 2 2.32 2 3 2 C2 4 2 4 0 6 C-0.64767793 8.57061311 -0.64767793 8.57061311 -1 11 C-1.99 10.67 -2.98 10.34 -4 10 C-3.34 10 -2.68 10 -2 10 C-1.855625 8.72125 -1.71125 7.4425 -1.5625 6.125 C-1.29357254 3.74307106 -1.07773654 2.15547309 0 0 Z " fill="#90A51B" transform="translate(288,264)"/>
  <path d="M0 0 C-0.33 0.99 -0.66 1.98 -1 3 C-4.3 3 -7.6 3 -11 3 C-11 2.67 -11 2.34 -11 2 C-3.375 0 -3.375 0 0 0 Z " fill="#185472" transform="translate(275,186)"/>
  <path d="M0 0 C1.32 0.33 2.64 0.66 4 1 C4.33 2.32 4.66 3.64 5 5 C3.68 4.67 2.36 4.34 1 4 C0.67 2.68 0.34 1.36 0 0 Z " fill="#653F3E" transform="translate(354,176)"/>
  <path d="M0 0 C1.32 0.33 2.64 0.66 4 1 C4 3.64 4 6.28 4 9 C1.3144406 6.3144406 0.93950026 3.62378672 0 0 Z " fill="#D7393A" transform="translate(347,124)"/>
  <path d="M0 0 C3.52069985 0.58678331 5.71299843 1.35649921 9 3 C6.03 3 3.06 3 0 3 C0 2.01 0 1.02 0 0 Z " fill="#26668A" transform="translate(239,190)"/>
  <path d="M0 0 C2.9375 0.375 2.9375 0.375 6 1 C6.33 1.66 6.66 2.32 7 3 C6.34 3.66 5.68 4.32 5 5 C3.35 3.35 1.7 1.7 0 0 Z " fill="#171615" transform="translate(355,242)"/>
  <path d="M0 0 C1.65 0 3.3 0 5 0 C5.33 0.99 5.66 1.98 6 3 C4.02 3 2.04 3 0 3 C0 2.01 0 1.02 0 0 Z " fill="#413D3B" transform="translate(313,234)"/>
  <path d="M0 0 C0.99 0.33 1.98 0.66 3 1 C3 2.65 3 4.3 3 6 C2.01 6 1.02 6 0 6 C0 4.02 0 2.04 0 0 Z " fill="#545539" transform="translate(287,198)"/>
</svg>