<?xml version="1.0" encoding="utf-8"?>
<svg version="1.1" xmlns="http://www.w3.org/2000/svg" width="650" height="520">
  <g transform="matrix(0.566679, 0, 0, 0.588153, 135.117401, 45.357193)">
    <path d="M 313.898 111.805 C 319.508 111.937 325.055 112.472 330.625 113.125 C 332.122 113.264 332.122 113.264 333.648 113.406 C 339.045 114.049 343.419 114.836 347.359 118.751 C 351.376 124.256 353.975 130.623 356.75 136.813 C 357.447 138.334 358.146 139.854 358.846 141.375 C 360.924 145.905 362.967 150.45 365 155 C 365.304 155.68 365.609 156.36 365.922 157.06 C 369.333 164.685 372.697 172.329 376 180 C 378.671 180 379.498 179.031 381.598 177.402 C 382.313 176.851 383.028 176.299 383.765 175.731 C 384.523 175.139 385.281 174.547 386.063 173.938 C 386.832 173.346 387.602 172.754 388.396 172.144 C 393.077 168.537 397.685 164.861 402.141 160.977 C 404 160 404 160 406.609 160.148 C 409 161 409 161 411 164 C 411.411 166.094 411.411 166.094 411.633 168.5 C 411.717 169.382 411.802 170.264 411.889 171.173 C 412.006 172.572 412.006 172.572 412.125 174 C 412.205 174.95 412.285 175.901 412.367 176.88 C 412.519 178.753 412.665 180.627 412.805 182.501 C 412.963 184.521 413.161 186.537 413.371 188.551 C 413.623 192.19 413.74 194.874 411.691 197.992 C 407.509 202.618 403.163 206.464 398.125 210.125 C 392.033 214.663 386.086 219.324 380.25 224.188 C 373.298 229.971 366.218 235.552 359 241 C 362.755 244.061 366.619 246.939 370.563 249.75 C 371.167 250.185 371.771 250.621 372.393 251.069 C 375.401 253.221 378.423 255.294 381.582 257.219 C 382.669 257.889 383.755 258.559 384.875 259.25 C 385.862 259.833 386.85 260.415 387.867 261.016 C 390 263 390 263 390.32 266.234 C 390.215 267.147 390.109 268.06 390 269 C 383.752 272.209 377.411 275.087 370.938 277.813 C 369.983 278.232 369.028 278.652 368.045 279.084 C 362.647 281.345 358.825 282.794 353 281 C 350.133 279.531 350.133 279.531 347.125 277.5 C 346.553 277.118 345.982 276.737 345.393 276.344 C 344.052 275.445 342.716 274.539 341.384 273.628 C 338.605 271.73 335.814 269.852 333.023 267.973 C 322.733 261.025 312.484 254.038 302.477 246.688 C 300.038 244.861 300.038 244.861 297 244 C 296.963 244.642 296.925 245.284 296.887 245.945 C 296.332 253.559 294.845 260.728 293 268.125 C 292.727 269.259 292.453 270.394 292.172 271.563 C 290.143 279.857 290.143 279.857 289 281 C 285.231 281.468 283.542 281.392 280.423 279.136 C 279.587 278.281 278.752 277.427 277.891 276.547 C 276.972 275.617 276.052 274.688 275.105 273.73 C 274.637 273.241 274.168 272.752 273.685 272.248 C 272.255 270.755 270.804 269.284 269.348 267.816 C 260.197 258.459 260.197 258.459 259.715 252.434 C 259.86 247.135 261.236 242.169 262.563 237.063 C 265.234 226.399 267.618 215.695 269.875 204.938 C 270.032 204.192 270.189 203.446 270.35 202.678 C 271.238 198.453 272.121 194.227 273 190 C 269.583 190.307 266.166 190.622 262.75 190.938 C 261.782 191.025 260.814 191.112 259.816 191.201 C 258.882 191.288 257.947 191.375 256.984 191.465 C 255.696 191.583 255.696 191.583 254.382 191.703 C 252.181 191.977 250.142 192.44 248 193 C 246.462 193.136 244.919 193.219 243.375 193.25 C 242.599 193.276 241.823 193.302 241.023 193.328 C 240.356 193.22 239.688 193.112 239 193 C 236.883 189.825 236.728 188.846 237.381 185.216 C 238.782 180.202 241.071 175.526 243.25 170.813 C 243.728 169.733 244.206 168.653 244.699 167.541 C 245.175 166.503 245.651 165.464 246.141 164.395 C 246.569 163.455 246.997 162.515 247.438 161.546 C 249.775 157.736 251.927 155.556 256.345 154.371 C 259.223 153.827 262.098 153.396 265 153 C 265.962 152.856 266.925 152.713 267.916 152.565 C 270.972 152.115 274.03 151.691 277.09 151.273 C 278.197 151.121 279.304 150.968 280.444 150.811 C 282.763 150.492 285.081 150.175 287.4 149.858 C 290.953 149.373 294.505 148.882 298.057 148.391 C 300.318 148.08 302.579 147.771 304.84 147.461 C 305.9 147.314 306.961 147.167 308.053 147.016 C 309.531 146.815 309.531 146.815 311.039 146.611 C 311.903 146.493 312.767 146.374 313.657 146.252 C 316 146 316 146 320 146 C 319.255 144.289 318.51 142.579 317.764 140.868 C 317.127 139.408 316.49 137.947 315.855 136.485 C 313.628 131.38 311.298 126.335 308.848 121.332 C 307.889 118.694 307.696 116.785 308 114 C 310 112 310 112 313.898 111.805 Z" fill="#DA3334"/>
    <path d="M 322.188 145.5 C 324.416 147.345 324.816 148.834 325.15 151.668 C 324.798 157.148 322.146 162.208 320 167.188 C 319.294 168.95 319.294 168.95 318.574 170.748 C 314.096 181.315 314.096 181.315 309.097 183.449 C 304.471 184.665 299.812 185.249 295.063 185.75 C 293.997 185.875 292.932 186 291.834 186.129 C 289.224 186.433 286.613 186.723 284 187 C 284 187.66 284 188.32 284 189 C 284.536 189.209 285.072 189.418 285.625 189.633 C 288.924 191.532 291.373 194.164 294 196.875 C 294.521 197.405 295.042 197.935 295.578 198.48 C 296.594 199.515 297.606 200.554 298.611 201.598 C 299.805 202.803 301.069 203.937 302.344 205.055 C 305.104 208.297 304.528 211.311 304.406 215.406 C 303.649 222.101 301.839 228.532 300 235 C 300.65 234.667 301.299 234.334 301.969 233.99 C 304.949 232.475 307.943 230.987 310.938 229.5 C 311.959 228.975 312.981 228.451 314.033 227.91 C 319.991 224.979 325.304 222.427 332 224 C 334.994 225.289 337.581 226.953 340.25 228.813 C 341.609 229.715 342.969 230.617 344.328 231.52 C 345.271 232.167 345.271 232.167 346.232 232.827 C 348.163 234.144 348.163 234.144 350.984 235.637 C 351.65 236.087 352.315 236.536 353 237 C 353 237.99 353 238.98 353 240 C 353.875 240.257 354.749 240.515 355.651 240.78 C 359.044 242.016 361.604 243.502 364.59 245.52 C 365.622 246.212 366.654 246.905 367.717 247.619 C 368.78 248.343 369.842 249.067 370.938 249.813 C 371.996 250.525 373.055 251.237 374.146 251.971 C 376.193 253.351 378.235 254.738 380.271 256.133 C 381.937 257.273 383.611 258.401 385.298 259.51 C 386.918 260.598 388.469 261.789 390 263 C 390.438 266.313 390.438 266.313 390 269 C 383.752 272.209 377.411 275.087 370.938 277.813 C 369.983 278.232 369.028 278.652 368.045 279.084 C 362.647 281.345 358.825 282.794 353 281 C 350.133 279.531 350.133 279.531 347.125 277.5 C 346.553 277.118 345.982 276.737 345.393 276.344 C 344.052 275.445 342.716 274.539 341.384 273.628 C 338.605 271.73 335.814 269.852 333.023 267.973 C 322.733 261.025 312.484 254.038 302.477 246.688 C 300.038 244.861 300.038 244.861 297 244 C 296.963 244.642 296.925 245.284 296.887 245.945 C 296.332 253.559 294.845 260.728 293 268.125 C 292.727 269.259 292.453 270.394 292.172 271.563 C 290.143 279.857 290.143 279.857 289 281 C 285.231 281.468 283.542 281.392 280.423 279.136 C 279.587 278.281 278.752 277.427 277.891 276.547 C 276.972 275.617 276.052 274.688 275.105 273.73 C 274.637 273.241 274.168 272.752 273.685 272.248 C 272.255 270.755 270.804 269.284 269.348 267.816 C 260.197 258.459 260.197 258.459 259.715 252.434 C 259.86 247.135 261.236 242.169 262.563 237.063 C 265.234 226.399 267.618 215.695 269.875 204.938 C 270.11 203.819 270.11 203.819 270.35 202.678 C 271.238 198.453 272.121 194.227 273 190 C 269.583 190.307 266.166 190.622 262.75 190.938 C 261.298 191.068 261.298 191.068 259.816 191.201 C 258.415 191.332 258.415 191.332 256.984 191.465 C 255.696 191.583 255.696 191.583 254.382 191.703 C 252.181 191.977 250.142 192.44 248 193 C 246.462 193.136 244.919 193.219 243.375 193.25 C 242.211 193.289 242.211 193.289 241.023 193.328 C 240.356 193.22 239.688 193.112 239 193 C 236.883 189.825 236.728 188.846 237.381 185.216 C 238.782 180.202 241.071 175.526 243.25 170.813 C 243.728 169.733 244.206 168.653 244.699 167.541 C 245.175 166.503 245.651 165.464 246.141 164.395 C 246.569 163.455 246.997 162.515 247.438 161.546 C 249.776 157.735 251.927 155.557 256.345 154.37 C 259.223 153.824 262.098 153.393 265 153 C 265.962 152.859 266.925 152.718 267.916 152.572 C 270.972 152.131 274.03 151.717 277.09 151.309 C 278.197 151.158 279.304 151.008 280.444 150.854 C 283.942 150.379 287.44 149.908 290.938 149.438 C 295.572 148.814 300.206 148.187 304.84 147.559 C 306.43 147.346 306.43 147.346 308.053 147.129 C 309.038 146.996 310.024 146.862 311.039 146.724 C 312.335 146.55 312.335 146.55 313.657 146.373 C 315.988 146.043 315.988 146.043 318.173 145.423 C 320 145 320 145 322.188 145.5 Z" fill="#403C39"/>
    <path d="M 324 154 C 326.207 156.756 327.731 159.37 329.086 162.625 C 329.46 163.496 329.834 164.368 330.219 165.266 C 330.988 167.086 331.751 168.909 332.508 170.734 C 335.006 176.517 337.191 180.095 343 183 C 344.764 183.198 346.534 183.345 348.305 183.465 C 349.892 183.582 349.892 183.582 351.512 183.701 C 353.746 183.858 355.98 184.012 358.215 184.162 C 359.276 184.241 360.337 184.321 361.43 184.402 C 362.401 184.469 363.373 184.536 364.375 184.605 C 366.979 184.997 368.739 185.682 371 187 C 370.541 187.368 370.083 187.735 369.611 188.114 C 367.509 189.802 365.411 191.495 363.313 193.188 C 362.591 193.766 361.87 194.344 361.127 194.939 C 354.175 200.189 354.175 200.189 349 207 C 349.199 216.691 350.73 226.399 352 236 C 348.993 235.395 346.934 234.467 344.426 232.715 C 343.757 232.267 343.089 231.819 342.4 231.357 C 341.02 230.419 339.647 229.468 338.283 228.506 C 333.177 225.126 329.101 223.819 323 225 C 319.569 226.197 316.404 227.756 313.188 229.438 C 311.537 230.273 309.884 231.105 308.23 231.934 C 307.513 232.305 306.795 232.677 306.055 233.06 C 304.046 233.979 302.156 234.539 300 235 C 300.487 231.183 301.104 227.539 302.063 223.813 C 303.28 218.35 304.102 212.52 303 207 C 300.85 204.411 300.85 204.411 298 202 C 296.978 200.981 295.964 199.955 294.957 198.922 C 293.909 197.865 292.861 196.807 291.813 195.75 C 291.279 195.209 290.746 194.667 290.197 194.109 C 287.375 191.192 287.375 191.192 284 189 C 284 188.34 284 187.68 284 187 C 285.123 186.807 286.246 186.613 287.402 186.414 C 291.245 185.749 295.085 185.065 298.923 184.372 C 300.611 184.07 302.301 183.781 303.992 183.496 C 308.658 182.624 310.953 181.608 314 178 C 315.431 175.328 315.431 175.328 316.578 172.359 C 317.016 171.289 317.455 170.22 317.906 169.117 C 318.571 167.45 318.571 167.45 319.25 165.75 C 319.709 164.623 320.168 163.497 320.641 162.336 C 321.769 159.561 322.889 156.782 324 154 Z" fill="#FBFAFA"/>
    <path d="M 322.188 145.5 C 324.416 147.345 324.816 148.834 325.15 151.668 C 324.798 157.148 322.146 162.208 320 167.188 C 319.294 168.95 319.294 168.95 318.574 170.748 C 314.539 180.271 314.539 180.271 310.73 182.688 C 306.262 184.26 301.999 185.186 297.313 185.813 C 296.436 185.938 295.559 186.063 294.655 186.193 C 287.983 187.064 281.66 187.124 275 186 C 274.67 186.99 274.34 187.98 274 189 C 269.856 189.678 265.71 190.34 261.563 191 C 260.398 191.191 259.233 191.382 258.033 191.578 C 251.635 192.587 245.476 193.536 239 193 C 236.883 189.825 236.728 188.846 237.381 185.216 C 238.782 180.202 241.071 175.526 243.25 170.813 C 243.728 169.733 244.206 168.653 244.699 167.541 C 245.175 166.503 245.651 165.464 246.141 164.395 C 246.569 163.455 246.997 162.515 247.438 161.546 C 249.776 157.735 251.927 155.557 256.345 154.37 C 259.223 153.824 262.098 153.393 265 153 C 265.962 152.859 266.925 152.718 267.916 152.572 C 270.972 152.131 274.03 151.717 277.09 151.309 C 278.197 151.158 279.304 151.008 280.444 150.854 C 283.942 150.379 287.44 149.908 290.938 149.438 C 295.572 148.814 300.206 148.187 304.84 147.559 C 306.43 147.346 306.43 147.346 308.053 147.129 C 309.038 146.996 310.024 146.862 311.039 146.724 C 312.335 146.55 312.335 146.55 313.657 146.373 C 315.988 146.043 315.988 146.043 318.173 145.423 C 320 145 320 145 322.188 145.5 Z" fill="#444444"/>
    <path d="M 275 186 C 281.75 185.875 281.75 185.875 284 187 C 284 187.66 284 188.32 284 189 C 284.536 189.209 285.073 189.418 285.625 189.633 C 288.924 191.532 291.373 194.164 294 196.875 C 294.781 197.67 294.781 197.67 295.578 198.48 C 296.594 199.515 297.606 200.554 298.611 201.599 C 299.803 202.801 301.069 203.929 302.348 205.039 C 305.128 208.339 304.467 211.551 304.34 215.691 C 303.893 220.046 302.889 224.115 301.656 228.309 C 301.004 230.983 300.881 233.26 301 236 C 300.01 236.33 299.02 236.66 298 237 C 297.67 238.98 297.34 240.96 297 243 C 297.99 243.495 297.99 243.495 299 244 C 298.34 244 297.68 244 297 244 C 296.963 244.642 296.925 245.284 296.887 245.945 C 296.332 253.559 294.845 260.728 293 268.125 C 292.727 269.259 292.453 270.394 292.172 271.562 C 290.143 279.857 290.143 279.857 289 281 C 285.231 281.468 283.542 281.392 280.423 279.136 C 279.587 278.281 278.752 277.427 277.891 276.547 C 276.512 275.153 276.512 275.153 275.105 273.73 C 274.637 273.241 274.168 272.752 273.685 272.248 C 272.255 270.755 270.804 269.284 269.348 267.816 C 260.197 258.459 260.197 258.459 259.715 252.434 C 259.86 247.135 261.236 242.169 262.563 237.062 C 265.234 226.399 267.618 215.695 269.875 204.937 C 270.032 204.192 270.189 203.446 270.35 202.678 C 271.238 198.453 272.121 194.227 273 190 C 270.69 190 268.38 190 266 190 C 266 189.67 266 189.34 266 189 C 269.076 188.707 269.076 188.707 272.152 188.414 C 273.067 188.209 273.067 188.209 274 188 C 274.33 187.34 274.66 186.68 275 186 Z" fill="#3E3B33"/>
    <path d="M 315 118 C 318.289 118.195 321.569 118.424 324.852 118.707 C 328.278 118.992 331.644 119.006 335.08 118.882 C 338.581 119.158 341.819 119.48 345 121 C 346.769 123.463 347.83 125.319 348.98 128.047 C 349.306 128.757 349.633 129.467 349.968 130.198 C 350.655 131.699 351.329 133.205 351.993 134.716 C 352.971 136.935 353.987 139.132 355.021 141.326 C 356.693 144.883 358.333 148.453 359.957 152.031 C 360.956 154.228 361.963 156.419 362.971 158.611 C 363.615 160.026 364.259 161.44 364.902 162.855 C 365.2 163.501 365.498 164.147 365.805 164.813 C 367.326 168.186 368.453 171.334 369 175 C 358.592 174.432 348.327 173.398 338 172 C 337.767 171.328 337.533 170.657 337.293 169.965 C 333.367 159.214 328.319 149.033 323.331 138.745 C 321.477 134.92 319.634 131.091 317.813 127.25 C 316.987 125.525 316.987 125.525 316.145 123.766 C 315 121 315 121 315 118 Z" fill="#3E3634"/>
    <path d="M 405 167 C 405.505 171.229 406.003 175.458 406.5 179.687 C 406.643 180.886 406.786 182.084 406.934 183.318 C 407.137 185.054 407.137 185.054 407.344 186.824 C 407.469 187.887 407.595 188.95 407.725 190.046 C 408.417 197.47 408.417 197.47 406.753 199.586 C 406.172 200.035 405.591 200.483 404.992 200.945 C 404.342 201.459 403.693 201.973 403.023 202.502 C 401.96 203.306 401.96 203.306 400.875 204.125 C 400.149 204.693 399.424 205.26 398.676 205.845 C 397.18 207.014 395.678 208.176 394.172 209.332 C 391.621 211.291 389.098 213.285 386.576 215.281 C 384.881 216.62 383.18 217.95 381.477 219.277 C 378.999 221.211 376.539 223.164 374.086 225.129 C 373.444 225.64 372.802 226.152 372.141 226.679 C 370.905 227.665 369.671 228.655 368.441 229.649 C 364.225 233 364.225 233 362 233 C 361.327 228.939 360.663 224.876 360 220.812 C 359.809 219.662 359.618 218.512 359.422 217.326 C 359.241 216.214 359.061 215.103 358.875 213.957 C 358.707 212.936 358.54 211.915 358.367 210.863 C 357.704 205.689 357.704 205.689 358 203 C 359.338 201.322 359.338 201.322 361.227 199.836 C 361.922 199.277 362.617 198.718 363.333 198.142 C 364.089 197.559 364.846 196.976 365.625 196.375 C 366.398 195.76 367.17 195.146 367.966 194.512 C 370.3 192.661 372.649 190.829 375 189 C 376.252 188.011 377.504 187.02 378.754 186.027 C 381.014 184.237 383.282 182.457 385.559 180.687 C 388.025 178.769 390.472 176.828 392.91 174.875 C 393.553 174.363 394.195 173.851 394.857 173.323 C 396.094 172.336 397.328 171.345 398.559 170.351 C 402.775 167 402.775 167 405 167 Z" fill="#4B463E"/>
    <path d="M 334.144 224.897 C 336.256 226.113 338.251 227.42 340.25 228.813 C 341.609 229.715 342.969 230.617 344.328 231.52 C 345.271 232.167 345.271 232.167 346.232 232.827 C 348.163 234.144 348.163 234.144 350.984 235.637 C 351.65 236.087 352.315 236.537 353 237 C 353 237.99 353 238.98 353 240 C 353.875 240.257 354.749 240.515 355.651 240.78 C 359.044 242.016 361.604 243.502 364.59 245.52 C 365.622 246.212 366.654 246.905 367.717 247.619 C 369.311 248.705 369.311 248.705 370.938 249.813 C 371.996 250.525 373.055 251.237 374.146 251.971 C 376.193 253.351 378.235 254.738 380.271 256.133 C 381.937 257.273 383.611 258.401 385.298 259.51 C 386.918 260.598 388.469 261.789 390 263 C 390.438 266.313 390.438 266.313 390 269 C 383.752 272.209 377.411 275.087 370.938 277.813 C 369.983 278.232 369.028 278.652 368.045 279.084 C 362.647 281.345 358.825 282.794 353 281 C 350.133 279.531 350.133 279.531 347.125 277.5 C 346.553 277.118 345.982 276.737 345.393 276.344 C 344.052 275.445 342.716 274.539 341.384 273.628 C 338.605 271.731 335.814 269.852 333.023 267.973 C 322.75 261.037 312.52 254.05 302.477 246.785 C 300.676 245.488 298.846 244.231 297 243 C 296.813 239.875 296.813 239.875 297 237 C 298.039 236.481 299.078 235.961 300.148 235.426 C 300.819 235.09 301.49 234.754 302.181 234.408 C 303.651 233.674 305.122 232.942 306.594 232.213 C 309.754 230.644 312.885 229.063 315.973 227.355 C 316.786 226.908 317.599 226.461 318.438 226 C 319.117 225.608 319.796 225.216 320.496 224.813 C 325.074 223.327 329.639 223.013 334.144 224.897 Z M 320.925 238.089 C 319.227 238.893 317.522 239.684 315.816 240.473 C 314.928 240.894 314.04 241.316 313.125 241.75 C 312.344 242.116 311.563 242.482 310.758 242.859 C 308.668 243.956 308.668 243.956 308 247 C 308.828 247.548 309.655 248.096 310.508 248.66 C 319.435 254.585 328.302 260.596 337.145 266.645 C 338.915 267.855 340.69 269.056 342.472 270.248 C 345 272 345 272 347.349 273.893 C 351.326 277.119 351.326 277.119 356.189 277.849 C 358.579 277.08 360.742 276.097 363 275 C 364.747 274.309 366.499 273.628 368.254 272.957 C 370.025 272.245 371.794 271.53 373.563 270.813 C 374.476 270.445 375.389 270.076 376.33 269.697 C 378.554 268.801 380.778 267.901 383 267 C 381.792 263.377 380.774 262.892 377.652 260.813 C 376.744 260.201 375.837 259.59 374.901 258.961 C 373.923 258.314 372.945 257.667 371.938 257 C 369.922 255.647 367.906 254.295 365.891 252.941 C 364.891 252.274 363.891 251.606 362.861 250.918 C 358.946 248.293 355.065 245.619 351.188 242.938 C 336.776 232.488 336.776 232.488 320.925 238.089 Z" fill="#272522"/>
    <path d="M 322.188 145.5 C 324.416 147.345 324.816 148.834 325.15 151.668 C 324.798 157.148 322.146 162.208 320 167.188 C 319.294 168.95 319.294 168.95 318.574 170.748 C 314.539 180.271 314.539 180.271 310.73 182.688 C 306.262 184.26 301.999 185.186 297.313 185.813 C 296.436 185.938 295.559 186.063 294.655 186.193 C 287.983 187.064 281.66 187.124 275 186 C 274.67 186.99 274.34 187.98 274 189 C 269.856 189.678 265.71 190.34 261.563 191 C 260.398 191.191 259.233 191.382 258.033 191.578 C 251.635 192.587 245.476 193.536 239 193 C 236.883 189.825 236.728 188.846 237.381 185.216 C 238.782 180.202 241.071 175.526 243.25 170.813 C 243.728 169.733 244.206 168.653 244.699 167.541 C 245.175 166.503 245.651 165.464 246.141 164.395 C 246.569 163.455 246.997 162.515 247.438 161.546 C 249.776 157.735 251.927 155.557 256.345 154.37 C 259.223 153.824 262.098 153.393 265 153 C 265.962 152.859 266.925 152.718 267.916 152.572 C 270.972 152.131 274.03 151.717 277.09 151.309 C 278.197 151.158 279.304 151.008 280.444 150.854 C 283.942 150.379 287.44 149.908 290.938 149.438 C 295.572 148.814 300.206 148.187 304.84 147.559 C 306.43 147.346 306.43 147.346 308.053 147.129 C 309.038 146.996 310.024 146.862 311.039 146.724 C 312.335 146.55 312.335 146.55 313.657 146.373 C 315.988 146.043 315.988 146.043 318.173 145.423 C 320 145 320 145 322.188 145.5 Z M 296.836 151.461 C 295.766 151.612 294.697 151.762 293.595 151.917 C 291.34 152.236 289.086 152.558 286.832 152.881 C 283.381 153.374 279.929 153.855 276.477 154.336 C 274.284 154.648 272.091 154.96 269.898 155.273 C 268.866 155.416 267.834 155.559 266.77 155.706 C 265.328 155.916 265.328 155.916 263.857 156.13 C 263.013 156.25 262.17 156.37 261.301 156.494 C 258.115 157.195 255.675 157.948 253.875 160.752 C 253.586 161.445 253.298 162.138 253 162.852 C 252.67 163.621 252.34 164.391 252 165.184 C 251.67 165.989 251.34 166.795 251 167.625 C 250.335 169.201 249.669 170.777 249 172.352 C 248.675 173.124 248.35 173.897 248.016 174.692 C 247.003 176.994 245.898 179.224 244.75 181.461 C 242.852 184.641 242.852 184.641 243 187 C 244.134 186.873 245.267 186.746 246.436 186.615 C 248.03 186.441 249.624 186.267 251.219 186.094 C 252.499 185.954 252.499 185.954 253.806 185.811 C 259.096 185.251 264.37 184.841 269.681 184.554 C 288.628 184.181 288.628 184.181 304.875 176.221 C 309.485 169.06 311.461 161.293 313 153 C 313.33 152.01 313.66 151.02 314 150 C 308.182 149.769 302.578 150.641 296.836 151.461 Z" fill="#0B7DBB"/>
    <path d="M 406.609 160.148 C 409 161 409 161 411 164 C 411.411 166.094 411.411 166.094 411.633 168.5 C 411.717 169.382 411.802 170.264 411.889 171.173 C 412.006 172.572 412.006 172.572 412.125 174 C 412.205 174.95 412.285 175.901 412.367 176.88 C 412.519 178.753 412.665 180.627 412.805 182.501 C 412.963 184.521 413.161 186.537 413.371 188.551 C 413.623 192.19 413.74 194.874 411.691 197.992 C 407.509 202.618 403.163 206.464 398.125 210.125 C 392.033 214.663 386.088 219.326 380.25 224.188 C 378.843 225.349 377.435 226.511 376.027 227.672 C 374.042 229.309 372.061 230.949 370.09 232.604 C 368.344 234.065 366.581 235.503 364.812 236.938 C 363.337 238.158 363.337 238.158 361.832 239.402 C 359 241 359 241 355.637 240.754 C 354.767 240.505 353.896 240.256 353 240 C 353 239.01 353 238.02 353 237 C 352.01 236.67 351.02 236.34 350 236 C 350.66 236 351.32 236 352 236 C 351.711 234.783 351.422 233.566 351.125 232.313 C 346.235 210.205 346.235 210.205 349.531 204.219 C 352.321 200.212 356.053 197.414 359.875 194.438 C 361.268 193.332 362.662 192.227 364.055 191.121 C 364.722 190.594 365.389 190.066 366.077 189.523 C 371.569 185.285 371.569 185.285 376 180 C 376.66 180 377.32 180 378 180 C 379.73 178.892 379.73 178.892 381.598 177.402 C 382.313 176.851 383.028 176.299 383.765 175.731 C 384.523 175.139 385.281 174.547 386.062 173.938 C 386.832 173.346 387.602 172.754 388.395 172.144 C 393.077 168.537 397.685 164.861 402.141 160.977 C 404 160 404 160 406.609 160.148 Z M 399.797 169.457 C 399.154 169.987 398.51 170.517 397.847 171.063 C 397.155 171.64 396.463 172.218 395.75 172.813 C 394.289 174.017 392.826 175.22 391.363 176.422 C 390.628 177.027 389.893 177.632 389.135 178.256 C 386.657 180.281 384.152 182.268 381.63 184.239 C 380.501 185.122 379.376 186.01 378.255 186.904 C 375.155 189.366 372.01 191.707 368.758 193.965 C 361.62 198.64 361.62 198.64 357.176 205.535 C 357.412 208.528 358.166 211.111 359 214 C 359.438 216.509 359.809 219.023 360.176 221.543 C 360.735 225.37 361.371 229.184 362 233 C 366.439 231.558 369.503 229.112 372.937 226.063 C 377.519 222.091 382.161 218.235 386.937 214.5 C 387.507 214.044 388.077 213.588 388.664 213.118 C 391.699 210.707 394.762 208.477 398.031 206.391 C 405.178 201.874 405.178 201.874 408.723 194.535 C 408.528 191.284 408.114 188.232 407.418 185.053 C 406.824 182.136 406.514 179.203 406.184 176.247 C 405.836 173.158 405.417 170.08 405 167 C 402.398 167 401.781 167.807 399.797 169.457 Z" fill="#DFC806"/>
    <path d="M 275 186 C 281.75 185.875 281.75 185.875 284 187 C 284 187.66 284 188.32 284 189 C 284.536 189.209 285.073 189.418 285.625 189.633 C 288.924 191.532 291.373 194.164 294 196.875 C 294.781 197.67 294.781 197.67 295.578 198.48 C 296.594 199.515 297.606 200.554 298.611 201.599 C 299.803 202.801 301.069 203.929 302.348 205.039 C 305.128 208.339 304.467 211.551 304.34 215.691 C 303.893 220.046 302.889 224.115 301.656 228.309 C 301.004 230.983 300.881 233.26 301 236 C 300.01 236.33 299.02 236.66 298 237 C 297.67 238.98 297.34 240.96 297 243 C 297.99 243.495 297.99 243.495 299 244 C 298.34 244 297.68 244 297 244 C 296.963 244.642 296.925 245.284 296.887 245.945 C 296.332 253.559 294.845 260.728 293 268.125 C 292.727 269.259 292.453 270.394 292.172 271.562 C 290.143 279.857 290.143 279.857 289 281 C 285.231 281.468 283.542 281.392 280.423 279.136 C 279.587 278.281 278.752 277.427 277.891 276.547 C 276.512 275.153 276.512 275.153 275.105 273.73 C 274.637 273.241 274.168 272.752 273.685 272.248 C 272.255 270.755 270.804 269.284 269.348 267.816 C 260.197 258.459 260.197 258.459 259.715 252.434 C 259.86 247.135 261.236 242.169 262.563 237.062 C 265.234 226.399 267.618 215.695 269.875 204.937 C 270.032 204.192 270.189 203.446 270.35 202.678 C 271.238 198.453 272.121 194.227 273 190 C 270.69 190 268.38 190 266 190 C 266 189.67 266 189.34 266 189 C 269.076 188.707 269.076 188.707 272.152 188.414 C 273.067 188.209 273.067 188.209 274 188 C 274.33 187.34 274.66 186.68 275 186 Z M 275 196 C 273.285 203.616 271.577 211.233 269.873 218.852 C 269.293 221.444 268.711 224.035 268.127 226.627 C 267.289 230.349 266.456 234.073 265.625 237.797 C 265.363 238.957 265.1 240.118 264.83 241.314 C 264.589 242.394 264.349 243.475 264.102 244.589 C 263.888 245.539 263.675 246.49 263.456 247.469 C 262.882 250.227 262.882 250.227 263 254 C 264.338 255.563 264.338 255.563 266.25 256.937 C 270.96 260.78 274.894 265.158 278.874 269.732 C 280.191 271.209 281.59 272.611 283 274 C 283.99 274 284.98 274 286 274 C 288.528 263.03 291.038 252.055 293.528 241.076 C 293.946 239.237 294.367 237.397 294.788 235.558 C 295.39 232.916 295.979 230.271 296.563 227.625 C 296.73 226.898 296.898 226.17 297.071 225.421 C 297.88 221.67 298.352 218.647 297 215 C 295.391 213.492 295.391 213.492 293.438 212.312 C 290.935 210.367 290.099 209.562 289.539 206.395 C 289.56 203.896 289.691 201.479 290 199 C 288.68 198.67 287.36 198.34 286 198 C 286 199.65 286 201.3 286 203 C 282.446 201.025 279.861 198.861 277 196 C 276.34 196 275.68 196 275 196 Z" fill="#A7C311"/>
    <path d="M 314 150 C 313.712 150.716 313.425 151.433 313.129 152.171 C 312.054 154.865 310.997 157.565 309.941 160.266 C 309.149 162.261 308.356 164.255 307.563 166.25 C 306.97 167.778 306.97 167.778 306.365 169.336 C 305.978 170.303 305.591 171.27 305.191 172.266 C 304.843 173.15 304.494 174.035 304.135 174.946 C 303 177 303 177 300 178 C 297.527 177.215 297.527 177.215 294.582 175.938 C 293.499 175.473 292.416 175.009 291.3 174.531 C 289.574 173.773 289.574 173.773 287.813 173 C 286.646 172.497 285.48 171.994 284.278 171.475 C 280.848 169.993 277.423 168.498 274 167 C 272.241 166.235 270.482 165.471 268.723 164.707 C 265.143 163.15 261.57 161.58 258 160 C 260 158 260 158 263.625 157.875 C 265.296 157.937 265.296 157.937 267 158 C 267 157.34 267 156.68 267 156 C 272.728 155.14 278.458 154.286 284.188 153.437 C 286.135 153.147 288.083 152.856 290.03 152.563 C 292.835 152.142 295.64 151.727 298.445 151.313 C 299.744 151.116 299.744 151.116 301.069 150.915 C 305.423 150.277 309.584 149.849 314 150 Z" fill="#393838"/>
    <path d="M 315 118 C 325.07 118.598 335.006 119.663 345 121 C 344.414 130.929 343.358 140.708 342 150.562 C 341.82 151.902 341.64 153.241 341.461 154.58 C 340.035 165.1 340.035 165.1 339 170 C 336.939 167.385 335.335 164.869 333.947 161.846 C 333.573 161.038 333.2 160.23 332.815 159.398 C 332.421 158.535 332.027 157.671 331.621 156.781 C 331.208 155.886 330.796 154.991 330.37 154.069 C 329.055 151.215 327.746 148.358 326.438 145.5 C 325.124 142.643 323.809 139.787 322.494 136.931 C 321.677 135.155 320.861 133.379 320.046 131.602 C 319.676 130.794 319.305 129.986 318.924 129.154 C 318.438 128.093 318.438 128.093 317.942 127.011 C 317.295 125.63 316.605 124.269 315.88 122.928 C 315 121 315 121 315 118 Z" fill="#4A4240"/>
    <path d="M 297 216 C 298.603 220.063 297.42 223.799 296.488 227.887 C 296.234 229.05 296.234 229.05 295.975 230.236 C 295.429 232.722 294.871 235.205 294.313 237.688 C 293.956 239.308 293.599 240.928 293.244 242.549 C 290.93 253.056 288.491 263.533 286 274 C 282.544 273.427 281.038 272.355 278.723 269.762 C 277.828 268.779 277.828 268.779 276.916 267.775 C 275.999 266.742 275.999 266.742 275.063 265.688 C 273.848 264.334 272.631 262.984 271.41 261.637 C 270.833 260.998 270.256 260.36 269.661 259.702 C 267.891 257.798 267.891 257.798 265.047 255.816 C 263 254 263 254 262.73 251.641 C 262.957 250.457 262.957 250.457 263.188 249.25 C 263.325 248.451 263.463 247.652 263.605 246.828 C 263.736 246.225 263.866 245.622 264 245 C 264.33 245 264.66 245 265 245 C 265.33 246.65 265.66 248.3 266 250 C 268.858 247.171 271.711 244.336 274.563 241.5 C 275.762 240.313 275.762 240.313 276.986 239.102 C 281.339 234.767 285.538 230.37 289.52 225.691 C 290.908 224.105 292.354 222.644 293.875 221.188 C 296.207 219.104 296.207 219.104 297 216 Z" fill="#48453F"/>
    <path d="M 405 198 C 403.678 201.012 402.366 202.805 399.797 204.848 C 399.153 205.365 398.509 205.882 397.846 206.416 C 397.154 206.959 396.463 207.503 395.75 208.062 C 395.037 208.632 394.324 209.201 393.59 209.788 C 391.399 211.533 389.201 213.268 387 215 C 385.715 216.017 384.43 217.034 383.145 218.051 C 380.817 219.889 378.484 221.719 376.145 223.543 C 374.155 225.098 372.172 226.662 370.199 228.238 C 369.391 228.882 368.583 229.525 367.75 230.187 C 366.721 231.013 366.721 231.013 365.672 231.855 C 364 233 364 233 362 233 C 359.795 222.957 359.796 213.215 360 203 C 393.014 197.564 393.014 197.564 405 198 Z" fill="#3D3833"/>
    <path d="M 304 233 C 304.66 233.33 305.32 233.66 306 234 C 306.66 234 307.32 234 308 234 C 311.333 234 314.667 234 318 234 C 318.33 235.65 318.66 237.3 319 239 C 316.805 240.463 314.68 241.744 312.375 243 C 308.972 244.605 308.972 244.605 308 247 C 308.733 247.269 309.467 247.537 310.222 247.814 C 312.929 248.97 315.052 250.27 317.441 251.977 C 318.267 252.561 319.092 253.146 319.942 253.748 C 320.807 254.367 321.672 254.987 322.563 255.625 C 324.361 256.899 326.161 258.173 327.961 259.445 C 328.828 260.059 329.695 260.673 330.589 261.306 C 334.497 264.052 338.459 266.705 342.469 269.301 C 345 271 345 271 347.406 272.918 C 351.334 276.108 351.334 276.108 356.133 276.875 C 358.555 276.111 360.719 275.119 363 274 C 365.141 273.072 367.287 272.156 369.438 271.25 C 370.447 270.801 371.456 270.353 372.496 269.891 C 373.322 269.597 374.149 269.303 375 269 C 375.66 269.33 376.32 269.66 377 270 C 375.396 274.69 373.802 276.107 369.328 278.324 C 367.804 278.999 367.804 278.999 366.25 279.687 C 365.245 280.145 364.239 280.603 363.203 281.074 C 358.266 282.501 354.679 281.86 350.133 279.531 C 349.14 278.861 348.148 278.191 347.125 277.5 C 346.553 277.118 345.982 276.737 345.393 276.343 C 344.052 275.445 342.716 274.539 341.384 273.628 C 338.605 271.73 335.814 269.852 333.023 267.973 C 322.75 261.037 312.52 254.05 302.477 246.785 C 300.676 245.488 298.846 244.231 297 243 C 296.813 239.875 296.813 239.875 297 237 C 302.273 233.777 302.273 233.777 304 233 Z" fill="#2F2D2A"/>
    <path d="M 321.813 146.063 C 323 148 323 148 322.938 150.625 C 321.73 154.973 319.942 158.936 318 163 C 317.237 162.814 316.474 162.629 315.688 162.438 C 312.91 161.772 312.91 161.772 310 163 C 310.456 157.615 311.118 154.634 314 150 C 306.222 151.117 298.444 152.239 290.666 153.363 C 288.019 153.746 285.372 154.127 282.725 154.507 C 278.924 155.053 275.124 155.602 271.324 156.152 C 269.543 156.407 269.543 156.407 267.726 156.667 C 266.625 156.827 265.524 156.987 264.389 157.152 C 263.419 157.292 262.449 157.432 261.449 157.576 C 258.874 157.959 258.874 157.959 256 159 C 254.788 161.497 254.788 161.497 253.75 164.438 C 251.535 169.666 251.535 169.666 249.121 171.172 C 247.188 171.688 247.188 171.688 244 172 C 247.868 158.813 247.868 158.813 253.76 155.402 C 256.968 154.014 259.58 153.388 263.034 152.941 C 264.785 152.706 264.785 152.706 266.573 152.466 C 267.82 152.31 269.067 152.153 270.352 151.992 C 272.325 151.731 274.298 151.47 276.271 151.209 C 279.023 150.847 281.776 150.496 284.529 150.144 C 289.356 149.525 294.181 148.889 299.006 148.254 C 301.572 147.918 304.138 147.585 306.705 147.256 C 307.867 147.106 309.028 146.955 310.225 146.8 C 311.246 146.669 312.267 146.539 313.319 146.404 C 315.948 146.062 315.948 146.062 318.248 145.384 C 320 145 320 145 321.813 146.063 Z" fill="#238EC8"/>
    <path d="M 275 186 C 281.75 185.875 281.75 185.875 284 187 C 284 187.66 284 188.32 284 189 C 284.536 189.209 285.073 189.418 285.625 189.633 C 288.924 191.532 291.373 194.164 294 196.875 C 294.521 197.405 295.042 197.935 295.578 198.48 C 296.594 199.515 297.606 200.554 298.611 201.599 C 299.803 202.801 301.069 203.929 302.348 205.039 C 305.128 208.339 304.467 211.551 304.34 215.691 C 303.893 220.046 302.889 224.115 301.656 228.309 C 301.004 230.983 300.881 233.26 301 236 C 299.515 236.495 299.515 236.495 298 237 C 297.67 238.98 297.34 240.96 297 243 C 297.66 243.33 298.32 243.66 299 244 C 298.34 244 297.68 244 297 244 C 296.963 244.641 296.927 245.282 296.889 245.943 C 296.336 253.588 294.811 260.767 292.938 268.187 C 292.656 269.33 292.374 270.473 292.084 271.65 C 291.396 274.435 290.702 277.218 290 280 C 289.34 280 288.68 280 288 280 C 288.33 276.04 288.66 272.08 289 268 C 288.34 270.31 287.68 272.62 287 275 C 286.01 274.67 285.02 274.34 284 274 C 284.66 274 285.32 274 286 274 C 286.122 272.886 286.245 271.771 286.371 270.623 C 286.989 265.694 288.007 260.881 289.066 256.031 C 289.265 255.11 289.463 254.189 289.667 253.241 C 290.296 250.326 290.929 247.413 291.563 244.5 C 291.992 242.513 292.421 240.526 292.85 238.539 C 293.896 233.692 294.947 228.846 296 224 C 296.33 224 296.66 224 297 224 C 297 225.98 297 227.96 297 230 C 297.66 230 298.32 230 299 230 C 299.756 226.011 300.414 222.017 301 218 C 301.188 216.753 301.188 216.753 301.379 215.48 C 301.659 212.073 301.557 209.888 299.715 206.949 C 297.912 204.834 296.008 202.921 294 201 C 293.328 200.306 292.657 199.613 291.965 198.898 C 284.706 190.786 284.706 190.786 275 187 C 275 186.67 275 186.34 275 186 Z" fill="#9FB914"/>
    <path d="M 408.313 161.125 C 410 162 410 162 411 164 C 411.219 165.462 411.391 166.931 411.535 168.402 C 411.622 169.288 411.71 170.174 411.8 171.086 C 411.886 172.027 411.973 172.968 412.063 173.937 C 412.15 174.889 412.238 175.84 412.329 176.82 C 413.907 194.639 413.907 194.639 411 199 C 410.34 199 409.68 199 409 199 C 408.505 191.575 408.505 191.575 408 184 C 408.66 184 409.32 184 410 184 C 408.902 178.592 408.902 178.592 405 175 C 404.592 172.288 404.867 169.756 405 167 C 398.309 171.653 391.955 176.61 385.688 181.812 C 380.227 186.343 374.753 190.849 369.188 195.25 C 368.619 195.703 368.051 196.157 367.466 196.624 C 364.761 198.752 362.163 200.622 359 202 C 359.688 199.125 359.688 199.125 361 196 C 363.625 194.625 363.625 194.625 366 194 C 366 193.34 366 192.68 366 192 C 367.65 191.34 369.3 190.68 371 190 C 371 189.34 371 188.68 371 188 C 372.68 186.492 372.68 186.492 374.875 184.875 C 375.594 184.336 376.314 183.797 377.055 183.242 C 379 182 379 182 381 182 C 381 181.34 381 180.68 381 180 C 382.409 179.027 383.824 178.063 385.273 177.152 C 387.056 175.962 388.633 174.656 390.25 173.25 C 393 171 393 171 395 171 C 395 170.34 395 169.68 395 169 C 396.65 168.34 398.3 167.68 400 167 C 400 166.34 400 165.68 400 165 C 405.09 160.951 405.09 160.951 408.313 161.125 Z" fill="#DDC504"/>
    <path d="M 317.688 113.375 C 319.553 113.524 319.553 113.524 321.457 113.676 C 325.322 114.03 329.156 114.462 333 115 C 333.33 116.65 333.66 118.3 334 120 C 332.146 119.857 330.292 119.71 328.438 119.563 C 327.405 119.481 326.372 119.4 325.309 119.316 C 321.852 118.986 318.436 118.501 315 118 C 315.394 118.868 315.788 119.736 316.193 120.63 C 317.65 123.846 319.103 127.062 320.554 130.28 C 321.183 131.674 321.814 133.067 322.446 134.459 C 323.353 136.458 324.255 138.459 325.156 140.461 C 325.441 141.085 325.725 141.709 326.018 142.352 C 328 146.772 328 146.772 328 149 C 322.985 147.328 320.159 145.042 317.536 140.422 C 316.098 137.306 314.661 134.191 313.25 131.063 C 312.743 129.978 312.237 128.893 311.715 127.775 C 311.237 126.727 310.758 125.678 310.266 124.598 C 309.613 123.167 309.613 123.167 308.946 121.707 C 307.98 118.943 307.809 116.903 308 114 C 311.543 112.819 313.971 113.078 317.688 113.375 Z" fill="#DB3234"/>
    <path d="M 313.836 111.867 C 319.474 111.936 325.028 112.469 330.625 113.125 C 332.122 113.264 332.122 113.264 333.648 113.406 C 339.017 114.045 343.417 114.818 347.341 118.711 C 351.464 124.4 354.137 130.993 357 137.375 C 357.678 138.851 358.358 140.326 359.039 141.801 C 361.057 146.187 363.034 150.591 365 155 C 365.34 155.759 365.68 156.519 366.031 157.301 C 367.025 159.524 368.014 161.75 369 163.977 C 369.303 164.655 369.606 165.333 369.918 166.032 C 372 170.768 372 170.768 372 173 C 370.196 172.872 370.196 172.872 368 172 C 366.404 169.45 366.404 169.45 364.863 166.043 C 364.583 165.432 364.302 164.821 364.013 164.191 C 363.412 162.878 362.818 161.561 362.23 160.242 C 361.31 158.181 360.368 156.132 359.421 154.083 C 356.616 147.988 353.908 141.882 351.469 135.629 C 348.437 126.655 348.437 126.655 342.008 120.344 C 339.16 119.793 336.867 119.636 334 120 C 333.67 118.35 333.34 116.7 333 115 C 331.969 115.021 330.938 115.041 329.875 115.063 C 313.125 115.063 313.125 115.063 309 113 C 310 112 310 112 313.836 111.867 Z" fill="#E84D4F"/>
    <path d="M 404 160 C 404.99 160.33 405.98 160.66 407 161 C 402.25 165 402.25 165 400 165 C 400 165.66 400 166.32 400 167 C 398.35 167.66 396.7 168.32 395 169 C 395 169.66 395 170.32 395 171 C 394.361 171.103 393.721 171.206 393.063 171.313 C 392.382 171.539 391.701 171.766 391 172 C 390.67 172.99 390.34 173.98 390 175 C 388.441 176.387 388.441 176.387 386.563 177.688 C 385.945 178.124 385.328 178.561 384.691 179.012 C 383 180 383 180 381 180 C 381 180.66 381 181.32 381 182 C 379.32 183.508 379.32 183.508 377.125 185.125 C 376.406 185.664 375.686 186.203 374.945 186.758 C 373 188 373 188 371 188 C 371 188.66 371 189.32 371 190 C 369.35 190.66 367.7 191.32 366 192 C 366 192.66 366 193.32 366 194 C 364.35 194.66 362.7 195.32 361 196 C 361 196.66 361 197.32 361 198 C 360.196 198.248 359.391 198.495 358.563 198.75 C 357.717 199.162 356.871 199.575 356 200 C 355.409 201.946 355.409 201.946 355 204 C 354.328 204.384 353.657 204.768 352.965 205.164 C 350.621 206.938 350.621 206.938 350.758 210.371 C 350.857 211.728 350.981 213.084 351.125 214.438 C 351.185 215.148 351.245 215.859 351.306 216.591 C 351.791 221.924 352.579 227.191 353.598 232.449 C 354.002 235.011 354.07 237.412 354 240 C 353.67 239.01 353.34 238.02 353 237 C 352.01 236.67 351.02 236.34 350 236 C 350.66 236 351.32 236 352 236 C 351.711 234.783 351.423 233.566 351.125 232.313 C 346.235 210.205 346.235 210.205 349.531 204.219 C 352.321 200.212 356.054 197.414 359.875 194.438 C 361.268 193.332 362.662 192.227 364.055 191.121 C 364.722 190.594 365.39 190.066 366.077 189.523 C 371.569 185.285 371.569 185.285 376 180 C 376.66 180 377.32 180 378 180 C 379.73 178.892 379.73 178.892 381.598 177.402 C 382.313 176.851 383.028 176.299 383.765 175.731 C 384.523 175.139 385.281 174.547 386.063 173.938 C 386.831 173.346 387.599 172.754 388.391 172.144 C 393.108 168.505 397.775 164.811 402.336 160.977 C 402.885 160.654 403.434 160.332 404 160 Z" fill="#BCA53C"/>
    <path d="M 263 254 C 266.967 255.36 269.485 258.253 272.375 261.188 C 273.103 261.923 273.103 261.923 273.846 262.673 C 276.519 265.398 279.067 268.185 281.5 271.125 C 283.743 274.197 283.743 274.197 287 275 C 287.124 273.866 287.247 272.731 287.375 271.563 C 287.684 269.799 287.684 269.799 288 268 C 288.66 267.67 289.32 267.34 290 267 C 289.67 271.62 289.34 276.24 289 281 C 283 281 283 281 280.407 279.152 C 279.565 278.304 278.723 277.456 277.855 276.582 C 276.932 275.657 276.008 274.732 275.057 273.779 C 274.586 273.292 274.115 272.805 273.63 272.303 C 272.192 270.817 270.729 269.36 269.26 267.904 C 261.507 260.032 261.507 260.032 261 255 C 261.66 254.67 262.32 254.34 263 254 Z" fill="#A9C319"/>
    <path d="M 266 189 C 268.64 189 271.28 189 274 189 C 275.331 197.526 274.469 204.699 272.578 213.07 C 272.317 214.273 272.057 215.476 271.788 216.715 C 271.238 219.236 270.679 221.756 270.113 224.273 C 269.246 228.144 268.41 232.02 267.578 235.898 C 267.038 238.352 266.497 240.805 265.953 243.258 C 265.703 244.421 265.453 245.585 265.195 246.783 C 264.952 247.849 264.709 248.914 264.458 250.012 C 264.248 250.954 264.039 251.896 263.823 252.866 C 263.551 253.57 263.28 254.274 263 255 C 261.515 255.495 261.515 255.495 260 256 C 259.675 249.272 260.876 243.555 262.563 237.063 C 265.234 226.399 267.618 215.695 269.875 204.938 C 270.032 204.192 270.189 203.446 270.35 202.678 C 271.238 198.453 272.121 194.227 273 190 C 270.69 190 268.38 190 266 190 C 266 189.67 266 189.34 266 189 Z" fill="#B4CD2A"/>
    <path d="M 320 145 C 321.563 146.125 321.563 146.125 323 148 C 322.871 153.438 320.305 158.175 318 163 C 317.237 162.814 316.474 162.629 315.688 162.438 C 312.91 161.772 312.91 161.772 310 163 C 310.452 157.67 311.027 154.551 314 150 C 313.42 150.091 312.841 150.182 312.243 150.275 C 309.6 150.687 306.956 151.094 304.313 151.5 C 303.4 151.643 302.488 151.786 301.549 151.934 C 300.219 152.137 300.219 152.137 298.863 152.344 C 297.646 152.532 297.646 152.532 296.404 152.725 C 293.915 153.01 291.503 153.047 289 153 C 289.33 152.34 289.66 151.68 290 151 C 292.329 150.438 292.329 150.438 295.391 150 C 296.493 149.835 297.595 149.67 298.73 149.5 C 299.892 149.335 301.053 149.17 302.25 149 C 304.527 148.672 306.803 148.339 309.078 148 C 310.6 147.783 310.6 147.783 312.153 147.563 C 314.967 147.007 317.381 146.153 320 145 Z" fill="#0880C1"/>
    <path d="M 322 146 C 323.563 147.063 323.563 147.063 325 149 C 324.71 155.847 321.943 161.912 319.375 168.188 C 318.754 169.807 318.754 169.807 318.121 171.459 C 314.164 181.147 314.164 181.147 308.981 183.409 C 305.086 184.571 301.213 185.272 297.188 185.813 C 296.349 185.946 295.51 186.079 294.646 186.217 C 288.597 187.086 283.042 186.86 277 186 C 277 185.67 277 185.34 277 185 C 277.817 184.895 278.634 184.789 279.475 184.68 C 282.529 184.281 285.582 183.872 288.633 183.456 C 290.594 183.192 292.557 182.938 294.52 182.686 C 295.763 182.515 297.007 182.344 298.289 182.168 C 299.431 182.016 300.572 181.864 301.749 181.708 C 305.268 180.942 307.923 179.869 311 178 C 312.483 175.419 313.575 173.18 314.625 170.438 C 314.916 169.721 315.208 169.004 315.508 168.266 C 316.087 166.837 316.658 165.405 317.22 163.969 C 317.89 162.277 318.607 160.603 319.332 158.934 C 321.264 154.462 322.524 150.975 322 146 Z" fill="#15557A"/>
    <path d="M 406 161 C 407.938 161.375 407.938 161.375 410 162 C 411.128 164.257 411.289 165.895 411.535 168.402 C 411.623 169.288 411.71 170.174 411.8 171.086 C 411.887 172.027 411.973 172.968 412.063 173.938 C 412.151 174.889 412.238 175.84 412.329 176.82 C 413.907 194.639 413.907 194.639 411 199 C 410.34 199 409.68 199 409 199 C 408.505 191.575 408.505 191.575 408 184 C 408.66 184 409.32 184 410 184 C 409.401 181.648 408.731 179.314 408 177 C 407.34 176.67 406.68 176.34 406 176 C 406 172.7 406 169.4 406 166 C 405.01 165.67 404.02 165.34 403 165 C 403.99 163.68 404.98 162.36 406 161 Z" fill="#E6CF0C"/>
    <path d="M 359 222 C 359.66 222.33 360.32 222.66 361 223 C 361.414 225.504 361.414 225.504 361.625 228.563 C 361.7 229.574 361.775 230.586 361.852 231.629 C 361.901 232.411 361.95 233.194 362 234 C 362.66 234 363.32 234 364 234 C 363.631 236.676 363.151 237.843 361.25 239.813 C 358.4 241.317 357.019 240.923 354 240 C 353.147 236.326 352.892 232.955 352.938 229.188 C 352.947 228.212 352.956 227.236 352.965 226.23 C 352.976 225.494 352.988 224.758 353 224 C 353.619 223.856 354.238 223.711 354.875 223.563 C 357.033 223.068 357.033 223.068 359 222 Z" fill="#E5CC03"/>
    <path d="M 369 173 C 370.32 173 371.64 173 373 173 C 374.596 176.49 375.32 179.154 375 183 C 374.67 183.33 374.34 183.66 374 184 C 371.299 183.909 368.631 183.763 365.938 183.563 C 365.179 183.51 364.42 183.458 363.639 183.404 C 361.759 183.274 359.879 183.138 358 183 C 358.021 182.237 358.041 181.474 358.063 180.688 C 358.129 177.898 358.129 177.898 357 175 C 360.96 175 364.92 175 369 175 C 369 174.34 369 173.68 369 173 Z" fill="#E33536"/>
    <path d="M 275 186 C 281.75 185.875 281.75 185.875 284 187 C 284 187.66 284 188.32 284 189 C 284.536 189.209 285.073 189.418 285.625 189.633 C 288.924 191.532 291.373 194.164 294 196.875 C 294.521 197.405 295.042 197.935 295.578 198.48 C 296.594 199.515 297.606 200.554 298.611 201.599 C 299.803 202.801 301.069 203.929 302.348 205.039 C 305.128 208.339 304.467 211.551 304.34 215.691 C 303.893 220.046 302.889 224.115 301.656 228.309 C 301.004 230.983 300.881 233.26 301 236 C 300.34 236 299.68 236 299 236 C 298.85 231.277 298.85 227.092 300 222.5 C 301.07 217.945 302.069 213.639 301 209 C 299.068 205.9 296.63 203.515 294 201 C 293.328 200.306 292.657 199.613 291.965 198.898 C 284.706 190.786 284.706 190.786 275 187 C 275 186.67 275 186.34 275 186 Z" fill="#718B37"/>
    <path d="M 353 137 C 354.771 137.047 354.771 137.047 357 138 C 358.425 140.421 359.563 142.684 360.672 145.246 C 361.163 146.336 361.163 146.336 361.664 147.447 C 362.353 148.983 363.035 150.523 363.71 152.065 C 364.747 154.431 365.803 156.787 366.863 159.143 C 367.53 160.635 368.195 162.128 368.859 163.621 C 369.175 164.329 369.49 165.038 369.816 165.768 C 372 170.764 372 170.764 372 173 C 370.214 172.905 370.214 172.905 368 172 C 366.657 169.828 365.611 167.831 364.582 165.516 C 364.279 164.863 363.977 164.21 363.665 163.538 C 363.027 162.156 362.396 160.77 361.772 159.382 C 360.819 157.265 359.846 155.16 358.869 153.055 C 358.251 151.709 357.635 150.363 357.02 149.016 C 356.731 148.388 356.442 147.761 356.145 147.115 C 354.646 143.766 353.548 140.632 353 137 Z" fill="#DA3D3E"/>
    <path d="M 406 176 C 406.99 176 407.98 176 409 176 C 409.33 178.64 409.66 181.28 410 184 C 409.34 184 408.68 184 408 184 C 408.249 185.062 408.498 186.124 408.754 187.219 C 410.999 198.359 410.999 198.359 408.375 202.668 C 406.024 204.721 403.662 206.374 401 208 C 399.641 208.993 398.286 209.993 396.938 211 C 395.968 211.66 394.999 212.32 394 213 C 394 209.566 394.401 209.119 396.563 206.625 C 397.038 206.06 397.514 205.496 398.004 204.914 C 400 203 400 203 401.779 202.057 C 403.922 200.868 405.41 199.876 407 198 C 407.733 194.167 407.345 190.548 406.938 186.688 C 406.858 185.661 406.779 184.634 406.697 183.576 C 406.497 181.046 406.264 178.524 406 176 Z" fill="#DCC50E"/>
    <path d="M 275 186 C 274.67 186.99 274.34 187.98 274 189 C 269.856 189.678 265.71 190.34 261.563 191 C 259.815 191.286 259.815 191.286 258.033 191.578 C 251.599 192.593 245.513 193.223 239 193 C 239 192.01 239 191.02 239 190 C 240.381 189.818 240.381 189.818 241.789 189.633 C 243.055 189.465 244.321 189.298 245.625 189.125 C 246.299 189.036 246.972 188.947 247.666 188.856 C 253.382 188.097 259.083 187.249 264.781 186.367 C 268.213 185.976 271.549 185.939 275 186 Z" fill="#13577D"/>
    <path d="M 289 267 C 290.031 270.269 289.964 272.86 289.563 276.25 C 289.461 277.142 289.359 278.034 289.254 278.953 C 289.17 279.629 289.086 280.304 289 281 C 286.5 281.5 286.5 281.5 283 281 C 279.958 278.661 277.31 276.067 275 273 C 275 272.01 275 271.02 275 270 C 275.66 270 276.32 270 277 270 C 277.33 269.34 277.66 268.68 278 268 C 278.398 268.421 278.797 268.843 279.207 269.277 C 279.737 269.825 280.267 270.373 280.813 270.937 C 281.335 271.483 281.857 272.028 282.395 272.59 C 284.058 274.235 284.058 274.235 287 275 C 287.144 273.866 287.289 272.731 287.438 271.562 C 288 268 288 268 289 267 Z" fill="#AAC615"/>
    <path d="M 308 114 C 311.05 116.586 312.317 119.504 313.918 123.129 C 314.45 124.328 314.981 125.528 315.529 126.764 C 315.801 127.387 316.073 128.01 316.353 128.652 C 317.188 130.563 318.033 132.468 318.881 134.373 C 323 143.723 323 143.723 323 146 C 320 145 320 145 318.558 142.579 C 318.071 141.527 317.584 140.475 317.082 139.391 C 316.55 138.243 316.019 137.096 315.471 135.914 C 315.199 135.312 314.927 134.711 314.647 134.091 C 313.819 132.265 312.969 130.449 312.119 128.633 C 307.639 118.852 307.639 118.852 308 114 Z" fill="#BD312F"/>
    <path d="M 296 241 C 296.33 241.66 296.66 242.32 297 243 C 297.66 243.33 298.32 243.66 299 244 C 298.34 244 297.68 244 297 244 C 296.945 244.962 296.945 244.962 296.889 245.943 C 296.336 253.588 294.811 260.767 292.938 268.188 C 292.656 269.33 292.374 270.473 292.084 271.65 C 291.396 274.435 290.702 277.218 290 280 C 289.34 280 288.68 280 288 280 C 289.363 271.164 291.147 262.467 293.125 253.75 C 293.541 251.9 293.541 251.9 293.965 250.012 C 294.64 247.007 295.319 244.003 296 241 Z" fill="#718B30"/>
    <path d="M 315 147 C 315 147.33 315 147.66 315 148 C 314.258 148.111 313.517 148.221 312.753 148.335 C 309.396 148.841 306.042 149.358 302.688 149.875 C 301.52 150.049 300.353 150.223 299.15 150.402 C 297.473 150.663 297.473 150.663 295.762 150.93 C 294.73 151.087 293.698 151.244 292.635 151.406 C 289.788 151.882 289.788 151.882 287 154 C 284.64 154.227 284.64 154.227 281.895 154.195 C 280.912 154.189 279.929 154.182 278.916 154.176 C 277.892 154.159 276.868 154.142 275.813 154.125 C 274.777 154.116 273.741 154.107 272.674 154.098 C 270.116 154.074 267.558 154.041 265 154 C 265 153.67 265 153.34 265 153 C 270.834 152.138 276.669 151.284 282.505 150.437 C 284.488 150.148 286.47 149.857 288.452 149.563 C 291.311 149.141 294.171 148.726 297.031 148.312 C 297.909 148.181 298.786 148.05 299.69 147.915 C 304.853 147.177 309.785 146.873 315 147 Z" fill="#42A0D3"/>
    <path d="M 324 148 C 324.66 148 325.32 148 326 148 C 326.454 149.216 326.454 149.216 326.918 150.457 C 329.402 157.022 332.033 163.434 335.082 169.758 C 336 172 336 172 336 175 C 335.34 175 334.68 175 334 175 C 332.501 172.009 331.03 169.006 329.563 166 C 329.142 165.161 328.721 164.322 328.287 163.457 C 325.738 158.196 324.372 153.843 324 148 Z" fill="#BA2D2C"/>
    <path d="M 334 225 C 336.183 226.18 338.01 227.496 340 229 C 339.01 230.485 339.01 230.485 338 232 C 336.969 231.34 335.938 230.68 334.875 230 C 329.514 226.948 324.894 227.877 319 229 C 324.355 224.793 327.072 223.328 334 225 Z" fill="#131212"/>
    <path d="M 266 189 C 268.64 189 271.28 189 274 189 C 275.221 198.275 274.371 203.656 270 212 C 269.013 208.889 269.032 206.836 269.777 203.672 C 269.961 202.873 270.145 202.073 270.334 201.25 C 270.533 200.425 270.732 199.6 270.938 198.75 C 271.133 197.91 271.328 197.069 271.529 196.203 C 272.011 194.134 272.505 192.066 273 190 C 270.69 190 268.38 190 266 190 C 266 189.67 266 189.34 266 189 Z" fill="#B4CD2B"/>
    <path d="M 281 153 C 280.67 153.66 280.34 154.32 280 155 C 278.022 155.487 278.022 155.487 275.449 155.816 C 274.523 155.941 273.597 156.065 272.643 156.193 C 271.667 156.315 270.692 156.437 269.688 156.563 C 267.775 156.812 265.862 157.063 263.949 157.316 C 263.097 157.424 262.244 157.532 261.366 157.643 C 259.193 157.971 257.12 158.427 255 159 C 255 158.01 255 157.02 255 156 C 257.832 155.492 260.665 154.993 263.5 154.5 C 264.687 154.285 264.687 154.285 265.898 154.066 C 271.012 153.186 275.811 152.857 281 153 Z" fill="#0880C1"/>
    <path d="M 350 183 C 352.896 182.973 355.792 182.953 358.688 182.938 C 359.912 182.925 359.912 182.925 361.162 182.912 C 365.245 182.896 369.017 182.97 373 184 C 372.67 184.66 372.34 185.32 372 186 C 369.458 185.858 366.917 185.712 364.375 185.563 C 363.306 185.504 363.306 185.504 362.215 185.443 C 358.082 185.197 354.077 184.765 350 184 C 350 183.67 350 183.34 350 183 Z" fill="#BE2624"/>
    <path d="M 286 198 C 287.32 198.33 288.64 198.66 290 199 C 289.67 201.97 289.34 204.94 289 208 C 287.35 206.35 285.7 204.7 284 203 C 284.66 203 285.32 203 286 203 C 286 201.35 286 199.7 286 198 Z" fill="#90A41A"/>
    <path d="M 406 176 C 406.99 176 407.98 176 409 176 C 409.33 178.64 409.66 181.28 410 184 C 409.34 184 408.68 184 408 184 C 408 186.97 408 189.94 408 193 C 407.67 193 407.34 193 407 193 C 406.67 187.39 406.34 181.78 406 176 Z" fill="#A1911C"/>
    <path d="M 378 257 C 383.04 257.445 385.376 259.713 389 263 C 388.67 263.99 388.34 264.98 388 266 C 387.278 265.402 386.556 264.804 385.813 264.188 C 383.087 261.965 383.087 261.965 380.188 260.375 C 379.466 259.921 378.744 259.467 378 259 C 378 258.34 378 257.68 378 257 Z" fill="#161615"/>
    <path d="M 262 239 C 262.33 239 262.66 239 263 239 C 263 244.28 263 249.56 263 255 C 262.01 255.33 261.02 255.66 260 256 C 259.782 249.998 260.494 244.808 262 239 Z" fill="#BFD547"/>
    <path d="M 270 260 C 271.149 260.954 272.294 261.914 273.438 262.875 C 274.076 263.409 274.714 263.942 275.371 264.492 C 277 266 277 266 278 268 C 277.67 268.66 277.34 269.32 277 270 C 274.532 268.848 272.952 267.952 271 266 C 270.602 264.012 270.262 262.011 270 260 Z" fill="#7D8B24"/>
    <path d="M 266 233 C 267.302 236.906 266.478 239.195 265.563 243.187 C 265.275 244.46 264.988 245.732 264.691 247.043 C 264.463 248.019 264.235 248.995 264 250 C 263.34 249.67 262.68 249.34 262 249 C 262.282 246.895 262.576 244.791 262.875 242.687 C 263.037 241.516 263.2 240.344 263.367 239.137 C 264 236 264 236 266 233 Z" fill="#ABC613"/>
    <path d="M 247 170 C 247.99 170.33 248.98 170.66 250 171 C 248.25 176.75 248.25 176.75 246 179 C 246 178.34 246 177.68 246 177 C 245.34 177 244.68 177 244 177 C 243.813 174.625 243.813 174.625 244 172 C 244.99 171.34 245.98 170.68 247 170 Z" fill="#1D6891"/>
    <path d="M 367 250 C 371.515 250.531 374.347 252.366 378 255 C 377.67 255.66 377.34 256.32 377 257 C 373.412 255.668 370.164 254.169 367 252 C 367 251.34 367 250.68 367 250 Z" fill="#161515"/>
    <path d="M 358 196 C 358.66 196.33 359.32 196.66 360 197 C 359.01 198.485 359.01 198.485 358 200 C 357.34 200 356.68 200 356 200 C 355.897 200.619 355.794 201.238 355.688 201.875 C 355 204 355 204 352 206 C 351.34 205.67 350.68 205.34 350 205 C 351.583 200.726 354.506 198.735 358 196 Z" fill="#C5B037"/>
    <path d="M 336 176 C 336.66 176 337.32 176 338 176 C 338.578 176.639 339.155 177.279 339.75 177.938 C 342.484 180.444 344.368 180.67 348 181 C 347.67 181.66 347.34 182.32 347 183 C 343.186 183.355 341.416 183.262 338.125 181.188 C 336 179 336 179 336 176 Z" fill="#BD2625"/>
    <path d="M 367 162 C 369.228 164.228 369.692 165.658 370.625 168.625 C 371.016 169.851 371.016 169.851 371.414 171.102 C 371.607 171.728 371.801 172.355 372 173 C 370.063 172.625 370.063 172.625 368 172 C 366.393 168.785 366.943 165.564 367 162 Z" fill="#E44A4B"/>
    <path d="M 403 163 C 403.66 163.33 404.32 163.66 405 164 C 404.67 164.33 404.34 164.66 404 165 C 404.66 165.33 405.32 165.66 406 166 C 406 168.97 406 171.94 406 175 C 405.67 175 405.34 175 405 175 C 405 172.36 405 169.72 405 167 C 403.02 167.99 401.04 168.98 399 170 C 399.313 167.625 399.313 167.625 400 165 C 400.99 164.34 401.98 163.68 403 163 Z" fill="#C6B20D"/>
    <path d="M 370 227 C 370.66 227.33 371.32 227.66 372 228 C 371.239 229.152 370.466 230.297 369.688 231.438 C 369.258 232.076 368.829 232.714 368.387 233.371 C 367 235 367 235 364 236 C 364 235.34 364 234.68 364 234 C 363.34 233.67 362.68 233.34 362 233 C 364.64 231.02 367.28 229.04 370 227 Z" fill="#D2BD0F"/>
    <path d="M 291 184 C 291 184.66 291 185.32 291 186 C 281.59 187.333 281.59 187.333 277 186 C 277 185.67 277 185.34 277 185 C 281.763 184.047 286.167 183.917 291 184 Z" fill="#195870"/>
    <path d="M 360 147 C 362.645 150.125 363.844 153.088 365 157 C 362.563 156.375 362.563 156.375 360 155 C 358.526 149.947 358.526 149.947 360 147 Z" fill="#E45152"/>
    <path d="M 351 127 C 353.228 129.228 353.692 130.658 354.625 133.625 C 355.016 134.851 355.016 134.851 355.414 136.102 C 355.607 136.728 355.801 137.355 356 138 C 354.063 137.625 354.063 137.625 352 137 C 350.393 133.785 350.943 130.564 351 127 Z" fill="#E44A4B"/>
    <path d="M 395 207 C 395.66 207.33 396.32 207.66 397 208 C 396.546 208.413 396.092 208.825 395.625 209.25 C 393.903 210.927 393.903 210.927 393 213.125 C 392 215 392 215 389 216 C 388.34 215.34 387.68 214.68 387 214 C 389.64 211.69 392.28 209.38 395 207 Z" fill="#CFB90D"/>
    <path d="M 325 116 C 326.98 116 328.96 116 331 116 C 331.33 117.32 331.66 118.64 332 120 C 328.7 119.67 325.4 119.34 322 119 C 322.99 118.67 323.98 118.34 325 118 C 325 117.34 325 116.68 325 116 Z" fill="#9C3939"/>
    <path d="M 296 224 C 296.33 224 296.66 224 297 224 C 297 225.98 297 227.96 297 230 C 297.66 230 298.32 230 299 230 C 299 231.98 299 233.96 299 236 C 298.01 236.495 298.01 236.495 297 237 C 297 235.35 297 233.7 297 232 C 296.34 233.65 295.68 235.3 295 237 C 293.927 233.728 294.107 231.57 294.938 228.25 C 295.132 227.451 295.327 226.652 295.527 225.828 C 295.683 225.225 295.839 224.622 296 224 Z" fill="#889F1D"/>
    <path d="M 266 189 C 268.64 189 271.28 189 274 189 C 275.106 194.834 275.271 197.766 272 203 C 270.927 199.728 271.107 197.571 271.938 194.25 C 272.132 193.451 272.327 192.652 272.527 191.828 C 272.683 191.225 272.839 190.622 273 190 C 270.69 190 268.38 190 266 190 C 266 189.67 266 189.34 266 189 Z" fill="#BDD17B"/>
    <path d="M 355 219 C 355.99 219 356.98 219 358 219 C 357.67 220.65 357.34 222.3 357 224 C 356.01 224.33 355.02 224.66 354 225 C 353.957 223.334 353.959 221.666 354 220 C 354.33 219.67 354.66 219.34 355 219 Z" fill="#645C35"/>
    <path d="M 316 161 C 315.67 162.32 315.34 163.64 315 165 C 313.68 165.33 312.36 165.66 311 166 C 311 164.68 311 163.36 311 162 C 313 161 313 161 316 161 Z" fill="#384F5C"/>
    <path d="M 288 264 C 288.33 264.66 288.66 265.32 289 266 C 289.66 266 290.32 266 291 266 C 290 268 290 268 288 270 C 287.352 272.571 287.352 272.571 287 275 C 286.01 274.67 285.02 274.34 284 274 C 284.66 274 285.32 274 286 274 C 286.144 272.721 286.289 271.443 286.438 270.125 C 286.706 267.743 286.922 266.155 288 264 Z" fill="#90A51B"/>
    <path d="M 275 186 C 274.67 186.99 274.34 187.98 274 189 C 270.7 189 267.4 189 264 189 C 264 188.67 264 188.34 264 188 C 271.625 186 271.625 186 275 186 Z" fill="#185472"/>
    <path d="M 354 176 C 355.32 176.33 356.64 176.66 358 177 C 358.33 178.32 358.66 179.64 359 181 C 357.68 180.67 356.36 180.34 355 180 C 354.67 178.68 354.34 177.36 354 176 Z" fill="#653F3E"/>
    <path d="M 347 124 C 348.32 124.33 349.64 124.66 351 125 C 351 127.64 351 130.28 351 133 C 348.314 130.314 347.94 127.624 347 124 Z" fill="#D7393A"/>
    <path d="M 239 190 C 242.521 190.587 244.713 191.356 248 193 C 245.03 193 242.06 193 239 193 C 239 192.01 239 191.02 239 190 Z" fill="#26668A"/>
    <path d="M 355 242 C 357.938 242.375 357.938 242.375 361 243 C 361.33 243.66 361.66 244.32 362 245 C 361.34 245.66 360.68 246.32 360 247 C 358.35 245.35 356.7 243.7 355 242 Z" fill="#171615"/>
    <path d="M 313 234 C 314.65 234 316.3 234 318 234 C 318.33 234.99 318.66 235.98 319 237 C 317.02 237 315.04 237 313 237 C 313 236.01 313 235.02 313 234 Z" fill="#413D3B"/>
    <path d="M 287 198 C 287.99 198.33 288.98 198.66 290 199 C 290 200.65 290 202.3 290 204 C 289.01 204 288.02 204 287 204 C 287 202.02 287 200.04 287 198 Z" fill="#545539"/>
  </g>
</svg>